M48
; DRILL file {KiCad 9.0.3} date 2025-07-29T19:54:15+1000
; FORMAT={-:-/ absolute / metric / decimal}
; #@! TF.CreationDate,2025-07-29T19:54:15+10:00
; #@! TF.GenerationSoftware,Kicad,Pcbnew,9.0.3
; #@! TF.FileFunction,NonPlated,1,2,NPTH
FMAT,2
METRIC
; #@! TA.AperFunction,NonPlated,NPTH,ComponentDrill
T1C1.700
; #@! TA.AperFunction,NonPlated,NPTH,ComponentDrill
T2C4.000
%
G90
G05
T1
X109.696Y-117.808
X109.696Y-136.858
X119.856Y-117.808
X119.856Y-136.858
X128.746Y-98.758
X128.746Y-117.808
X128.746Y-136.858
X138.906Y-98.758
X138.906Y-117.808
X138.906Y-136.858
X147.796Y-98.758
X147.796Y-117.808
X147.796Y-136.858
X157.956Y-98.758
X157.956Y-117.808
X157.956Y-136.858
T2
X114.776Y-117.808
X114.776Y-136.858
X133.826Y-98.758
X133.826Y-117.808
X133.826Y-136.858
X152.876Y-98.758
X152.876Y-117.808
X152.876Y-136.858
M30
