G04 #@! TF.GenerationSoftware,KiCad,Pcbnew,9.0.3*
G04 #@! TF.CreationDate,2025-07-29T19:53:29+10:00*
G04 #@! TF.ProjectId,NyaPad,4e796150-6164-42e6-9b69-6361645f7063,rev?*
G04 #@! TF.SameCoordinates,Original*
G04 #@! TF.FileFunction,Copper,L1,Top*
G04 #@! TF.FilePolarity,Positive*
%FSLAX46Y46*%
G04 Gerber Fmt 4.6, Leading zero omitted, Abs format (unit mm)*
G04 Created by KiCad (PCBNEW 9.0.3) date 2025-07-29 19:53:29*
%MOMM*%
%LPD*%
G01*
G04 APERTURE LIST*
G04 Aperture macros list*
%AMRoundRect*
0 Rectangle with rounded corners*
0 $1 Rounding radius*
0 $2 $3 $4 $5 $6 $7 $8 $9 X,Y pos of 4 corners*
0 Add a 4 corners polygon primitive as box body*
4,1,4,$2,$3,$4,$5,$6,$7,$8,$9,$2,$3,0*
0 Add four circle primitives for the rounded corners*
1,1,$1+$1,$2,$3*
1,1,$1+$1,$4,$5*
1,1,$1+$1,$6,$7*
1,1,$1+$1,$8,$9*
0 Add four rect primitives between the rounded corners*
20,1,$1+$1,$2,$3,$4,$5,0*
20,1,$1+$1,$4,$5,$6,$7,0*
20,1,$1+$1,$6,$7,$8,$9,0*
20,1,$1+$1,$8,$9,$2,$3,0*%
G04 Aperture macros list end*
G04 #@! TA.AperFunction,ComponentPad*
%ADD10C,2.200000*%
G04 #@! TD*
G04 #@! TA.AperFunction,ComponentPad*
%ADD11R,1.700000X1.700000*%
G04 #@! TD*
G04 #@! TA.AperFunction,ComponentPad*
%ADD12O,1.700000X1.700000*%
G04 #@! TD*
G04 #@! TA.AperFunction,SMDPad,CuDef*
%ADD13RoundRect,0.152400X0.609600X-1.063600X0.609600X1.063600X-0.609600X1.063600X-0.609600X-1.063600X0*%
G04 #@! TD*
G04 #@! TA.AperFunction,ComponentPad*
%ADD14C,1.524000*%
G04 #@! TD*
G04 #@! TA.AperFunction,SMDPad,CuDef*
%ADD15RoundRect,0.152400X-0.609600X1.063600X-0.609600X-1.063600X0.609600X-1.063600X0.609600X1.063600X0*%
G04 #@! TD*
G04 #@! TA.AperFunction,ComponentPad*
%ADD16R,2.000000X2.000000*%
G04 #@! TD*
G04 #@! TA.AperFunction,ComponentPad*
%ADD17C,2.000000*%
G04 #@! TD*
G04 #@! TA.AperFunction,ComponentPad*
%ADD18R,3.200000X2.000000*%
G04 #@! TD*
G04 #@! TA.AperFunction,ComponentPad*
%ADD19RoundRect,0.250000X0.550000X-0.550000X0.550000X0.550000X-0.550000X0.550000X-0.550000X-0.550000X0*%
G04 #@! TD*
G04 #@! TA.AperFunction,ComponentPad*
%ADD20C,1.600000*%
G04 #@! TD*
G04 #@! TA.AperFunction,Conductor*
%ADD21C,0.200000*%
G04 #@! TD*
G04 APERTURE END LIST*
D10*
X136366250Y-93677725D03*
X130016250Y-96217725D03*
D11*
X104305000Y-81021475D03*
D12*
X104305000Y-78481475D03*
X104305000Y-75941475D03*
X104305000Y-73401475D03*
D10*
X155416250Y-93677725D03*
X149066250Y-96217725D03*
X155416250Y-131777725D03*
X149066250Y-134317725D03*
X117316250Y-131777725D03*
X110966250Y-134317725D03*
X136366250Y-131777725D03*
X130016250Y-134317725D03*
X136366250Y-112727725D03*
X130016250Y-115267725D03*
X155416250Y-112727725D03*
X149066250Y-115267725D03*
D13*
X165120000Y-68045000D03*
D14*
X165120000Y-68880000D03*
D13*
X162580000Y-68045000D03*
D14*
X162580000Y-68880000D03*
D13*
X160040000Y-68045000D03*
D14*
X160040000Y-68880000D03*
D13*
X157500000Y-68045000D03*
D14*
X157500000Y-68880000D03*
D13*
X154960000Y-68045000D03*
D14*
X154960000Y-68880000D03*
D13*
X152420000Y-68045000D03*
D14*
X152420000Y-68880000D03*
D13*
X149880000Y-68045000D03*
D14*
X149880000Y-68880000D03*
X149880000Y-84120000D03*
D15*
X149880000Y-84955000D03*
D14*
X152420000Y-84120000D03*
D15*
X152420000Y-84955000D03*
D14*
X154960000Y-84120000D03*
D15*
X154960000Y-84955000D03*
D14*
X157500000Y-84120000D03*
D15*
X157500000Y-84955000D03*
D14*
X160040000Y-84120000D03*
D15*
X160040000Y-84955000D03*
D14*
X162580000Y-84120000D03*
D15*
X162580000Y-84955000D03*
D14*
X165120000Y-84120000D03*
D15*
X165120000Y-84955000D03*
D16*
X118820000Y-101250000D03*
D17*
X118820000Y-96250000D03*
X118820000Y-98750000D03*
D18*
X111320000Y-104350000D03*
X111320000Y-93150000D03*
D17*
X104320000Y-96250000D03*
X104320000Y-101250000D03*
D10*
X117316250Y-112727725D03*
X110966250Y-115267725D03*
D19*
X143351250Y-101615225D03*
D20*
X143351250Y-93995225D03*
D19*
X162401250Y-101615225D03*
D20*
X162401250Y-93995225D03*
D19*
X143351250Y-120665225D03*
D20*
X143351250Y-113045225D03*
D19*
X124301250Y-120665225D03*
D20*
X124301250Y-113045225D03*
D19*
X143351250Y-139715225D03*
D20*
X143351250Y-132095225D03*
D19*
X162401250Y-139715225D03*
D20*
X162401250Y-132095225D03*
D19*
X124301250Y-101615225D03*
D20*
X124301250Y-93995225D03*
D19*
X162401250Y-120665225D03*
D20*
X162401250Y-113045225D03*
D19*
X124301250Y-139715225D03*
D20*
X124301250Y-132095225D03*
D21*
X103019000Y-96788892D02*
X104980108Y-98750000D01*
X104980108Y-98750000D02*
X118820000Y-98750000D01*
X103019000Y-82307475D02*
X103019000Y-96788892D01*
X104305000Y-81021475D02*
X103019000Y-82307475D01*
X162580000Y-85197630D02*
X162580000Y-84120000D01*
X111341000Y-96250000D02*
X113595775Y-93995225D01*
X104320000Y-96250000D02*
X111341000Y-96250000D01*
X113595775Y-93995225D02*
X124301250Y-93995225D01*
X139163975Y-84120000D02*
X122121987Y-101161987D01*
X118820000Y-101250000D02*
X122033974Y-101250000D01*
X122121987Y-101161987D02*
X122026250Y-101257725D01*
X122033974Y-101250000D02*
X122121987Y-101161987D01*
X149880000Y-84120000D02*
X139163975Y-84120000D01*
X136366250Y-93677725D02*
X143033750Y-93677725D01*
X143033750Y-93677725D02*
X143351250Y-93995225D01*
X162083750Y-93677725D02*
X162401250Y-93995225D01*
X155416250Y-93677725D02*
X162083750Y-93677725D01*
X117316250Y-112727725D02*
X123983750Y-112727725D01*
X123983750Y-112727725D02*
X124301250Y-113045225D01*
X143033750Y-112727725D02*
X143351250Y-113045225D01*
X136366250Y-112727725D02*
X143033750Y-112727725D01*
X162083750Y-112727725D02*
X162401250Y-113045225D01*
X155416250Y-112727725D02*
X162083750Y-112727725D01*
X166687500Y-116378975D02*
X166687500Y-76601000D01*
X166687500Y-76601000D02*
X162479000Y-76601000D01*
X124301250Y-120665225D02*
X143351250Y-120665225D01*
X143351250Y-120665225D02*
X162401250Y-120665225D01*
X162401250Y-120665225D02*
X166687500Y-116378975D01*
X162479000Y-76601000D02*
X154960000Y-84120000D01*
X117316250Y-131777725D02*
X123983750Y-131777725D01*
X123983750Y-131777725D02*
X124301250Y-132095225D01*
X136366250Y-131777725D02*
X143033750Y-131777725D01*
X143033750Y-131777725D02*
X143351250Y-132095225D01*
X155416250Y-131777725D02*
X162083750Y-131777725D01*
X162083750Y-131777725D02*
X162401250Y-132095225D01*
X102393750Y-66675000D02*
X104775000Y-64293750D01*
X105456000Y-72118500D02*
X102393750Y-69056250D01*
X104775000Y-64293750D02*
X150018750Y-64293750D01*
X104305000Y-75941475D02*
X105456000Y-74790475D01*
X152420000Y-66695000D02*
X152420000Y-68045000D01*
X102393750Y-69056250D02*
X102393750Y-66675000D01*
X105456000Y-74790475D02*
X105456000Y-72118500D01*
X152420000Y-68880000D02*
X152420000Y-66695000D01*
X150018750Y-64293750D02*
X152420000Y-66695000D01*
X102493750Y-62601000D02*
X152400000Y-62601000D01*
X100801000Y-69897475D02*
X100801000Y-64293750D01*
X152400000Y-62601000D02*
X154960000Y-65161000D01*
X154960000Y-65161000D02*
X154960000Y-68880000D01*
X104305000Y-73401475D02*
X100801000Y-69897475D01*
X100801000Y-64293750D02*
X102493750Y-62601000D01*
X143351250Y-139715225D02*
X162401250Y-139715225D01*
X167599000Y-76200000D02*
X167599000Y-134517475D01*
X167599000Y-134517475D02*
X162401250Y-139715225D01*
X160340000Y-76200000D02*
X167599000Y-76200000D01*
X152420000Y-84120000D02*
X160340000Y-76200000D01*
X124301250Y-139715225D02*
X143351250Y-139715225D01*
X123603525Y-96250000D02*
X149880000Y-69973525D01*
X118820000Y-96250000D02*
X123603524Y-96250000D01*
X149880000Y-69973525D02*
X123595800Y-96257725D01*
X123603524Y-96250000D02*
X123886762Y-95966762D01*
X122990000Y-96257725D02*
X122390000Y-96257725D01*
X121760000Y-96250000D02*
X123603524Y-96250000D01*
X123886762Y-95966762D02*
X149880000Y-69973525D01*
X121890000Y-96250000D02*
X122382275Y-96250000D01*
X122382275Y-96250000D02*
X118820000Y-96250000D01*
X118820000Y-96250000D02*
X121760000Y-96250000D01*
X122982275Y-96250000D02*
X122990000Y-96257725D01*
X149880000Y-69973525D02*
X149880000Y-68880000D01*
X121890000Y-96250000D02*
X122982275Y-96250000D01*
X121760000Y-96250000D02*
X121890000Y-96250000D01*
X123603525Y-96250000D02*
X123886762Y-95966762D01*
X122382275Y-96250000D02*
X122390000Y-96257725D01*
X123595800Y-96257725D02*
X122990000Y-96257725D01*
X122390000Y-96257725D02*
X122026250Y-96257725D01*
X118820000Y-96250000D02*
X123603525Y-96250000D01*
X160040000Y-84955000D02*
X160040000Y-84120000D01*
X143351250Y-101615225D02*
X162401250Y-101615225D01*
X166286500Y-97729975D02*
X162684800Y-101331675D01*
X124301250Y-101615225D02*
X143351250Y-101615225D01*
X166286500Y-77002000D02*
X166286500Y-97729975D01*
X157500000Y-84120000D02*
X157500000Y-83006250D01*
X163504250Y-77002000D02*
X166286500Y-77002000D01*
X157500000Y-83006250D02*
X163504250Y-77002000D01*
M02*
