G04 #@! TF.GenerationSoftware,KiCad,Pcbnew,9.0.3*
G04 #@! TF.CreationDate,2025-07-29T19:53:29+10:00*
G04 #@! TF.ProjectId,NyaPad,4e796150-6164-42e6-9b69-6361645f7063,rev?*
G04 #@! TF.SameCoordinates,Original*
G04 #@! TF.FileFunction,Soldermask,Top*
G04 #@! TF.FilePolarity,Negative*
%FSLAX46Y46*%
G04 Gerber Fmt 4.6, Leading zero omitted, Abs format (unit mm)*
G04 Created by KiCad (PCBNEW 9.0.3) date 2025-07-29 19:53:29*
%MOMM*%
%LPD*%
G01*
G04 APERTURE LIST*
G04 Aperture macros list*
%AMRoundRect*
0 Rectangle with rounded corners*
0 $1 Rounding radius*
0 $2 $3 $4 $5 $6 $7 $8 $9 X,Y pos of 4 corners*
0 Add a 4 corners polygon primitive as box body*
4,1,4,$2,$3,$4,$5,$6,$7,$8,$9,$2,$3,0*
0 Add four circle primitives for the rounded corners*
1,1,$1+$1,$2,$3*
1,1,$1+$1,$4,$5*
1,1,$1+$1,$6,$7*
1,1,$1+$1,$8,$9*
0 Add four rect primitives between the rounded corners*
20,1,$1+$1,$2,$3,$4,$5,0*
20,1,$1+$1,$4,$5,$6,$7,0*
20,1,$1+$1,$6,$7,$8,$9,0*
20,1,$1+$1,$8,$9,$2,$3,0*%
G04 Aperture macros list end*
%ADD10C,1.700000*%
%ADD11C,4.000000*%
%ADD12C,2.200000*%
%ADD13R,1.700000X1.700000*%
%ADD14O,1.700000X1.700000*%
%ADD15RoundRect,0.152400X0.609600X-1.063600X0.609600X1.063600X-0.609600X1.063600X-0.609600X-1.063600X0*%
%ADD16C,1.524000*%
%ADD17RoundRect,0.152400X-0.609600X1.063600X-0.609600X-1.063600X0.609600X-1.063600X0.609600X1.063600X0*%
%ADD18R,2.000000X2.000000*%
%ADD19C,2.000000*%
%ADD20R,3.200000X2.000000*%
%ADD21RoundRect,0.250000X0.550000X-0.550000X0.550000X0.550000X-0.550000X0.550000X-0.550000X-0.550000X0*%
%ADD22C,1.600000*%
G04 APERTURE END LIST*
D10*
X128746250Y-98757725D03*
D11*
X133826250Y-98757725D03*
D10*
X138906250Y-98757725D03*
D12*
X136366250Y-93677725D03*
X130016250Y-96217725D03*
D13*
X104305000Y-81021475D03*
D14*
X104305000Y-78481475D03*
X104305000Y-75941475D03*
X104305000Y-73401475D03*
D10*
X147796250Y-98757725D03*
D11*
X152876250Y-98757725D03*
D10*
X157956250Y-98757725D03*
D12*
X155416250Y-93677725D03*
X149066250Y-96217725D03*
D10*
X147796250Y-136857725D03*
D11*
X152876250Y-136857725D03*
D10*
X157956250Y-136857725D03*
D12*
X155416250Y-131777725D03*
X149066250Y-134317725D03*
D10*
X109696250Y-136857725D03*
D11*
X114776250Y-136857725D03*
D10*
X119856250Y-136857725D03*
D12*
X117316250Y-131777725D03*
X110966250Y-134317725D03*
D10*
X128746250Y-136857725D03*
D11*
X133826250Y-136857725D03*
D10*
X138906250Y-136857725D03*
D12*
X136366250Y-131777725D03*
X130016250Y-134317725D03*
D10*
X128746250Y-117807725D03*
D11*
X133826250Y-117807725D03*
D10*
X138906250Y-117807725D03*
D12*
X136366250Y-112727725D03*
X130016250Y-115267725D03*
D10*
X147796250Y-117807725D03*
D11*
X152876250Y-117807725D03*
D10*
X157956250Y-117807725D03*
D12*
X155416250Y-112727725D03*
X149066250Y-115267725D03*
D15*
X165120000Y-68045000D03*
D16*
X165120000Y-68880000D03*
D15*
X162580000Y-68045000D03*
D16*
X162580000Y-68880000D03*
D15*
X160040000Y-68045000D03*
D16*
X160040000Y-68880000D03*
D15*
X157500000Y-68045000D03*
D16*
X157500000Y-68880000D03*
D15*
X154960000Y-68045000D03*
D16*
X154960000Y-68880000D03*
D15*
X152420000Y-68045000D03*
D16*
X152420000Y-68880000D03*
D15*
X149880000Y-68045000D03*
D16*
X149880000Y-68880000D03*
X149880000Y-84120000D03*
D17*
X149880000Y-84955000D03*
D16*
X152420000Y-84120000D03*
D17*
X152420000Y-84955000D03*
D16*
X154960000Y-84120000D03*
D17*
X154960000Y-84955000D03*
D16*
X157500000Y-84120000D03*
D17*
X157500000Y-84955000D03*
D16*
X160040000Y-84120000D03*
D17*
X160040000Y-84955000D03*
D16*
X162580000Y-84120000D03*
D17*
X162580000Y-84955000D03*
D16*
X165120000Y-84120000D03*
D17*
X165120000Y-84955000D03*
D18*
X118820000Y-101250000D03*
D19*
X118820000Y-96250000D03*
X118820000Y-98750000D03*
D20*
X111320000Y-104350000D03*
X111320000Y-93150000D03*
D19*
X104320000Y-96250000D03*
X104320000Y-101250000D03*
D10*
X109696250Y-117807725D03*
D11*
X114776250Y-117807725D03*
D10*
X119856250Y-117807725D03*
D12*
X117316250Y-112727725D03*
X110966250Y-115267725D03*
D21*
X143351250Y-101615225D03*
D22*
X143351250Y-93995225D03*
D21*
X162401250Y-101615225D03*
D22*
X162401250Y-93995225D03*
D21*
X143351250Y-120665225D03*
D22*
X143351250Y-113045225D03*
D21*
X124301250Y-120665225D03*
D22*
X124301250Y-113045225D03*
D21*
X143351250Y-139715225D03*
D22*
X143351250Y-132095225D03*
D21*
X162401250Y-139715225D03*
D22*
X162401250Y-132095225D03*
D21*
X124301250Y-101615225D03*
D22*
X124301250Y-93995225D03*
D21*
X162401250Y-120665225D03*
D22*
X162401250Y-113045225D03*
D21*
X124301250Y-139715225D03*
D22*
X124301250Y-132095225D03*
M02*
