G04 #@! TF.GenerationSoftware,KiCad,Pcbnew,9.0.3*
G04 #@! TF.CreationDate,2025-07-29T19:53:29+10:00*
G04 #@! TF.ProjectId,NyaPad,4e796150-6164-42e6-9b69-6361645f7063,rev?*
G04 #@! TF.SameCoordinates,Original*
G04 #@! TF.FileFunction,Copper,L2,Bot*
G04 #@! TF.FilePolarity,Positive*
%FSLAX46Y46*%
G04 Gerber Fmt 4.6, Leading zero omitted, Abs format (unit mm)*
G04 Created by KiCad (PCBNEW 9.0.3) date 2025-07-29 19:53:29*
%MOMM*%
%LPD*%
G01*
G04 APERTURE LIST*
G04 Aperture macros list*
%AMRoundRect*
0 Rectangle with rounded corners*
0 $1 Rounding radius*
0 $2 $3 $4 $5 $6 $7 $8 $9 X,Y pos of 4 corners*
0 Add a 4 corners polygon primitive as box body*
4,1,4,$2,$3,$4,$5,$6,$7,$8,$9,$2,$3,0*
0 Add four circle primitives for the rounded corners*
1,1,$1+$1,$2,$3*
1,1,$1+$1,$4,$5*
1,1,$1+$1,$6,$7*
1,1,$1+$1,$8,$9*
0 Add four rect primitives between the rounded corners*
20,1,$1+$1,$2,$3,$4,$5,0*
20,1,$1+$1,$4,$5,$6,$7,0*
20,1,$1+$1,$6,$7,$8,$9,0*
20,1,$1+$1,$8,$9,$2,$3,0*%
G04 Aperture macros list end*
G04 #@! TA.AperFunction,ComponentPad*
%ADD10C,2.200000*%
G04 #@! TD*
G04 #@! TA.AperFunction,ComponentPad*
%ADD11R,1.700000X1.700000*%
G04 #@! TD*
G04 #@! TA.AperFunction,ComponentPad*
%ADD12O,1.700000X1.700000*%
G04 #@! TD*
G04 #@! TA.AperFunction,ComponentPad*
%ADD13C,1.524000*%
G04 #@! TD*
G04 #@! TA.AperFunction,ComponentPad*
%ADD14R,2.000000X2.000000*%
G04 #@! TD*
G04 #@! TA.AperFunction,ComponentPad*
%ADD15C,2.000000*%
G04 #@! TD*
G04 #@! TA.AperFunction,ComponentPad*
%ADD16R,3.200000X2.000000*%
G04 #@! TD*
G04 #@! TA.AperFunction,ComponentPad*
%ADD17RoundRect,0.250000X0.550000X-0.550000X0.550000X0.550000X-0.550000X0.550000X-0.550000X-0.550000X0*%
G04 #@! TD*
G04 #@! TA.AperFunction,ComponentPad*
%ADD18C,1.600000*%
G04 #@! TD*
G04 #@! TA.AperFunction,Conductor*
%ADD19C,0.200000*%
G04 #@! TD*
G04 APERTURE END LIST*
D10*
X136366250Y-93677725D03*
X130016250Y-96217725D03*
D11*
X104305000Y-81021475D03*
D12*
X104305000Y-78481475D03*
X104305000Y-75941475D03*
X104305000Y-73401475D03*
D10*
X155416250Y-93677725D03*
X149066250Y-96217725D03*
X155416250Y-131777725D03*
X149066250Y-134317725D03*
X117316250Y-131777725D03*
X110966250Y-134317725D03*
X136366250Y-131777725D03*
X130016250Y-134317725D03*
X136366250Y-112727725D03*
X130016250Y-115267725D03*
X155416250Y-112727725D03*
X149066250Y-115267725D03*
D13*
X165120000Y-68880000D03*
X162580000Y-68880000D03*
X160040000Y-68880000D03*
X157500000Y-68880000D03*
X154960000Y-68880000D03*
X152420000Y-68880000D03*
X149880000Y-68880000D03*
X149880000Y-84120000D03*
X152420000Y-84120000D03*
X154960000Y-84120000D03*
X157500000Y-84120000D03*
X160040000Y-84120000D03*
X162580000Y-84120000D03*
X165120000Y-84120000D03*
D14*
X118820000Y-101250000D03*
D15*
X118820000Y-96250000D03*
X118820000Y-98750000D03*
D16*
X111320000Y-104350000D03*
X111320000Y-93150000D03*
D15*
X104320000Y-96250000D03*
X104320000Y-101250000D03*
D10*
X117316250Y-112727725D03*
X110966250Y-115267725D03*
D17*
X143351250Y-101615225D03*
D18*
X143351250Y-93995225D03*
D17*
X162401250Y-101615225D03*
D18*
X162401250Y-93995225D03*
D17*
X143351250Y-120665225D03*
D18*
X143351250Y-113045225D03*
D17*
X124301250Y-120665225D03*
D18*
X124301250Y-113045225D03*
D17*
X143351250Y-139715225D03*
D18*
X143351250Y-132095225D03*
D17*
X162401250Y-139715225D03*
D18*
X162401250Y-132095225D03*
D17*
X124301250Y-101615225D03*
D18*
X124301250Y-93995225D03*
D17*
X162401250Y-120665225D03*
D18*
X162401250Y-113045225D03*
D17*
X124301250Y-139715225D03*
D18*
X124301250Y-132095225D03*
D19*
X154423275Y-92276725D02*
X128507250Y-92276725D01*
X128507250Y-92276725D02*
X122696987Y-98086987D01*
X122033974Y-98750000D02*
X122696987Y-98086987D01*
X118820000Y-98750000D02*
X122033974Y-98750000D01*
X122696987Y-98086987D02*
X122026250Y-98757725D01*
X162580000Y-84120000D02*
X154423275Y-92276725D01*
X161103000Y-84560310D02*
X161103000Y-69943000D01*
X130016250Y-96217725D02*
X130016250Y-100965000D01*
X119287000Y-85183000D02*
X160480310Y-85183000D01*
X130016250Y-100965000D02*
X123825000Y-107156250D01*
X119062500Y-107156250D02*
X116681250Y-104775000D01*
X130016250Y-115267725D02*
X130016250Y-134317725D01*
X123825000Y-107156250D02*
X119062500Y-107156250D01*
X130016250Y-96217725D02*
X130016250Y-115267725D01*
X161103000Y-69943000D02*
X160040000Y-68880000D01*
X116681250Y-104775000D02*
X116681250Y-87788750D01*
X160480310Y-85183000D02*
X161103000Y-84560310D01*
X116681250Y-87788750D02*
X119287000Y-85183000D01*
X100801000Y-80357716D02*
X103828241Y-77330475D01*
X104320000Y-101250000D02*
X100801000Y-97731000D01*
X149049525Y-77330475D02*
X157500000Y-68880000D01*
X110966250Y-115267725D02*
X110966250Y-134317725D01*
X100801000Y-97731000D02*
X100801000Y-80357716D01*
X110966250Y-107896250D02*
X104320000Y-101250000D01*
X103828241Y-77330475D02*
X149049525Y-77330475D01*
X110966250Y-115267725D02*
X110966250Y-107896250D01*
X154401475Y-78481475D02*
X104305000Y-78481475D01*
X160040000Y-84120000D02*
X154401475Y-78481475D01*
X149066250Y-96217725D02*
X154857564Y-96217725D01*
X149066250Y-115267725D02*
X149066250Y-134317725D01*
X164057000Y-87018289D02*
X164057000Y-70357000D01*
X154857564Y-96217725D02*
X164057000Y-87018289D01*
X164057000Y-70357000D02*
X162580000Y-68880000D01*
X149066250Y-96217725D02*
X149066250Y-115267725D01*
M02*
