M48
; DRILL file {KiCad 9.0.3} date 2025-07-29T19:54:15+1000
; FORMAT={-:-/ absolute / metric / decimal}
; #@! TF.CreationDate,2025-07-29T19:54:15+10:00
; #@! TF.GenerationSoftware,Kicad,Pcbnew,9.0.3
; #@! TF.FileFunction,Plated,1,2,PTH
FMAT,2
METRIC
; #@! TA.AperFunction,Plated,PTH,ComponentDrill
T1C0.800
; #@! TA.AperFunction,Plated,PTH,ComponentDrill
T2C0.889
; #@! TA.AperFunction,Plated,PTH,ComponentDrill
T3C1.000
; #@! TA.AperFunction,Plated,PTH,ComponentDrill
T4C1.500
%
G90
G05
T1
X124.301Y-93.995
X124.301Y-101.615
X124.301Y-113.045
X124.301Y-120.665
X124.301Y-132.095
X124.301Y-139.715
X143.351Y-93.995
X143.351Y-101.615
X143.351Y-113.045
X143.351Y-120.665
X143.351Y-132.095
X143.351Y-139.715
X162.401Y-93.995
X162.401Y-101.615
X162.401Y-113.045
X162.401Y-120.665
X162.401Y-132.095
X162.401Y-139.715
T2
X149.88Y-68.88
X149.88Y-84.12
X152.42Y-68.88
X152.42Y-84.12
X154.96Y-68.88
X154.96Y-84.12
X157.5Y-68.88
X157.5Y-84.12
X160.04Y-68.88
X160.04Y-84.12
X162.58Y-68.88
X162.58Y-84.12
X165.12Y-68.88
X165.12Y-84.12
T3
X104.305Y-73.401
X104.305Y-75.941
X104.305Y-78.481
X104.305Y-81.021
X104.32Y-96.25
X104.32Y-101.25
X118.82Y-96.25
X118.82Y-98.75
X118.82Y-101.25
T4
X110.966Y-115.268
X110.966Y-134.318
X117.316Y-112.728
X117.316Y-131.778
X130.016Y-96.218
X130.016Y-115.268
X130.016Y-134.318
X136.366Y-93.678
X136.366Y-112.728
X136.366Y-131.778
X149.066Y-96.218
X149.066Y-115.268
X149.066Y-134.318
X155.416Y-93.678
X155.416Y-112.728
X155.416Y-131.778
T4
X111.97Y-93.15G85X110.67Y-93.15
G05
X111.97Y-104.35G85X110.67Y-104.35
G05
M30
