G04 #@! TF.GenerationSoftware,KiCad,Pcbnew,9.0.3*
G04 #@! TF.CreationDate,2025-07-29T19:53:29+10:00*
G04 #@! TF.ProjectId,NyaPad,4e796150-6164-42e6-9b69-6361645f7063,rev?*
G04 #@! TF.SameCoordinates,Original*
G04 #@! TF.FileFunction,Legend,Top*
G04 #@! TF.FilePolarity,Positive*
%FSLAX46Y46*%
G04 Gerber Fmt 4.6, Leading zero omitted, Abs format (unit mm)*
G04 Created by KiCad (PCBNEW 9.0.3) date 2025-07-29 19:53:29*
%MOMM*%
%LPD*%
G01*
G04 APERTURE LIST*
%ADD10C,0.300000*%
%ADD11C,0.100000*%
%ADD12C,0.150000*%
%ADD13C,0.101600*%
%ADD14C,0.120000*%
%ADD15C,0.040000*%
%ADD16C,0.127000*%
%ADD17C,0.504000*%
G04 APERTURE END LIST*
D10*
X105024510Y-67080828D02*
X105024510Y-65580828D01*
X105024510Y-65580828D02*
X105881653Y-67080828D01*
X105881653Y-67080828D02*
X105881653Y-65580828D01*
X106453082Y-66080828D02*
X106810225Y-67080828D01*
X107167368Y-66080828D02*
X106810225Y-67080828D01*
X106810225Y-67080828D02*
X106667368Y-67437971D01*
X106667368Y-67437971D02*
X106595939Y-67509400D01*
X106595939Y-67509400D02*
X106453082Y-67580828D01*
X108381654Y-67080828D02*
X108381654Y-66295114D01*
X108381654Y-66295114D02*
X108310225Y-66152257D01*
X108310225Y-66152257D02*
X108167368Y-66080828D01*
X108167368Y-66080828D02*
X107881654Y-66080828D01*
X107881654Y-66080828D02*
X107738796Y-66152257D01*
X108381654Y-67009400D02*
X108238796Y-67080828D01*
X108238796Y-67080828D02*
X107881654Y-67080828D01*
X107881654Y-67080828D02*
X107738796Y-67009400D01*
X107738796Y-67009400D02*
X107667368Y-66866542D01*
X107667368Y-66866542D02*
X107667368Y-66723685D01*
X107667368Y-66723685D02*
X107738796Y-66580828D01*
X107738796Y-66580828D02*
X107881654Y-66509400D01*
X107881654Y-66509400D02*
X108238796Y-66509400D01*
X108238796Y-66509400D02*
X108381654Y-66437971D01*
X109095939Y-66080828D02*
X109095939Y-67080828D01*
X109095939Y-66223685D02*
X109167368Y-66152257D01*
X109167368Y-66152257D02*
X109310225Y-66080828D01*
X109310225Y-66080828D02*
X109524511Y-66080828D01*
X109524511Y-66080828D02*
X109667368Y-66152257D01*
X109667368Y-66152257D02*
X109738797Y-66295114D01*
X109738797Y-66295114D02*
X109738797Y-67080828D01*
X110453082Y-67080828D02*
X110453082Y-65580828D01*
X110595940Y-66509400D02*
X111024511Y-67080828D01*
X111024511Y-66080828D02*
X110453082Y-66652257D01*
X111881654Y-67080828D02*
X111738797Y-67009400D01*
X111738797Y-67009400D02*
X111667368Y-66937971D01*
X111667368Y-66937971D02*
X111595940Y-66795114D01*
X111595940Y-66795114D02*
X111595940Y-66366542D01*
X111595940Y-66366542D02*
X111667368Y-66223685D01*
X111667368Y-66223685D02*
X111738797Y-66152257D01*
X111738797Y-66152257D02*
X111881654Y-66080828D01*
X111881654Y-66080828D02*
X112095940Y-66080828D01*
X112095940Y-66080828D02*
X112238797Y-66152257D01*
X112238797Y-66152257D02*
X112310226Y-66223685D01*
X112310226Y-66223685D02*
X112381654Y-66366542D01*
X112381654Y-66366542D02*
X112381654Y-66795114D01*
X112381654Y-66795114D02*
X112310226Y-66937971D01*
X112310226Y-66937971D02*
X112238797Y-67009400D01*
X112238797Y-67009400D02*
X112095940Y-67080828D01*
X112095940Y-67080828D02*
X111881654Y-67080828D01*
X113024511Y-67080828D02*
X113024511Y-65580828D01*
X113024511Y-65580828D02*
X113595940Y-65580828D01*
X113595940Y-65580828D02*
X113738797Y-65652257D01*
X113738797Y-65652257D02*
X113810226Y-65723685D01*
X113810226Y-65723685D02*
X113881654Y-65866542D01*
X113881654Y-65866542D02*
X113881654Y-66080828D01*
X113881654Y-66080828D02*
X113810226Y-66223685D01*
X113810226Y-66223685D02*
X113738797Y-66295114D01*
X113738797Y-66295114D02*
X113595940Y-66366542D01*
X113595940Y-66366542D02*
X113024511Y-66366542D01*
X115167369Y-67080828D02*
X115167369Y-66295114D01*
X115167369Y-66295114D02*
X115095940Y-66152257D01*
X115095940Y-66152257D02*
X114953083Y-66080828D01*
X114953083Y-66080828D02*
X114667369Y-66080828D01*
X114667369Y-66080828D02*
X114524511Y-66152257D01*
X115167369Y-67009400D02*
X115024511Y-67080828D01*
X115024511Y-67080828D02*
X114667369Y-67080828D01*
X114667369Y-67080828D02*
X114524511Y-67009400D01*
X114524511Y-67009400D02*
X114453083Y-66866542D01*
X114453083Y-66866542D02*
X114453083Y-66723685D01*
X114453083Y-66723685D02*
X114524511Y-66580828D01*
X114524511Y-66580828D02*
X114667369Y-66509400D01*
X114667369Y-66509400D02*
X115024511Y-66509400D01*
X115024511Y-66509400D02*
X115167369Y-66437971D01*
X116524512Y-67080828D02*
X116524512Y-65580828D01*
X116524512Y-67009400D02*
X116381654Y-67080828D01*
X116381654Y-67080828D02*
X116095940Y-67080828D01*
X116095940Y-67080828D02*
X115953083Y-67009400D01*
X115953083Y-67009400D02*
X115881654Y-66937971D01*
X115881654Y-66937971D02*
X115810226Y-66795114D01*
X115810226Y-66795114D02*
X115810226Y-66366542D01*
X115810226Y-66366542D02*
X115881654Y-66223685D01*
X115881654Y-66223685D02*
X115953083Y-66152257D01*
X115953083Y-66152257D02*
X116095940Y-66080828D01*
X116095940Y-66080828D02*
X116381654Y-66080828D01*
X116381654Y-66080828D02*
X116524512Y-66152257D01*
D11*
X104923884Y-69232419D02*
X104923884Y-68232419D01*
X104923884Y-68232419D02*
X105257217Y-68946704D01*
X105257217Y-68946704D02*
X105590550Y-68232419D01*
X105590550Y-68232419D02*
X105590550Y-69232419D01*
X106495312Y-69232419D02*
X106495312Y-68708609D01*
X106495312Y-68708609D02*
X106447693Y-68613371D01*
X106447693Y-68613371D02*
X106352455Y-68565752D01*
X106352455Y-68565752D02*
X106161979Y-68565752D01*
X106161979Y-68565752D02*
X106066741Y-68613371D01*
X106495312Y-69184800D02*
X106400074Y-69232419D01*
X106400074Y-69232419D02*
X106161979Y-69232419D01*
X106161979Y-69232419D02*
X106066741Y-69184800D01*
X106066741Y-69184800D02*
X106019122Y-69089561D01*
X106019122Y-69089561D02*
X106019122Y-68994323D01*
X106019122Y-68994323D02*
X106066741Y-68899085D01*
X106066741Y-68899085D02*
X106161979Y-68851466D01*
X106161979Y-68851466D02*
X106400074Y-68851466D01*
X106400074Y-68851466D02*
X106495312Y-68803847D01*
X107400074Y-69232419D02*
X107400074Y-68232419D01*
X107400074Y-69184800D02*
X107304836Y-69232419D01*
X107304836Y-69232419D02*
X107114360Y-69232419D01*
X107114360Y-69232419D02*
X107019122Y-69184800D01*
X107019122Y-69184800D02*
X106971503Y-69137180D01*
X106971503Y-69137180D02*
X106923884Y-69041942D01*
X106923884Y-69041942D02*
X106923884Y-68756228D01*
X106923884Y-68756228D02*
X106971503Y-68660990D01*
X106971503Y-68660990D02*
X107019122Y-68613371D01*
X107019122Y-68613371D02*
X107114360Y-68565752D01*
X107114360Y-68565752D02*
X107304836Y-68565752D01*
X107304836Y-68565752D02*
X107400074Y-68613371D01*
X108257217Y-69184800D02*
X108161979Y-69232419D01*
X108161979Y-69232419D02*
X107971503Y-69232419D01*
X107971503Y-69232419D02*
X107876265Y-69184800D01*
X107876265Y-69184800D02*
X107828646Y-69089561D01*
X107828646Y-69089561D02*
X107828646Y-68708609D01*
X107828646Y-68708609D02*
X107876265Y-68613371D01*
X107876265Y-68613371D02*
X107971503Y-68565752D01*
X107971503Y-68565752D02*
X108161979Y-68565752D01*
X108161979Y-68565752D02*
X108257217Y-68613371D01*
X108257217Y-68613371D02*
X108304836Y-68708609D01*
X108304836Y-68708609D02*
X108304836Y-68803847D01*
X108304836Y-68803847D02*
X107828646Y-68899085D01*
X109495313Y-69232419D02*
X109495313Y-68232419D01*
X109495313Y-68613371D02*
X109590551Y-68565752D01*
X109590551Y-68565752D02*
X109781027Y-68565752D01*
X109781027Y-68565752D02*
X109876265Y-68613371D01*
X109876265Y-68613371D02*
X109923884Y-68660990D01*
X109923884Y-68660990D02*
X109971503Y-68756228D01*
X109971503Y-68756228D02*
X109971503Y-69041942D01*
X109971503Y-69041942D02*
X109923884Y-69137180D01*
X109923884Y-69137180D02*
X109876265Y-69184800D01*
X109876265Y-69184800D02*
X109781027Y-69232419D01*
X109781027Y-69232419D02*
X109590551Y-69232419D01*
X109590551Y-69232419D02*
X109495313Y-69184800D01*
X110304837Y-68565752D02*
X110542932Y-69232419D01*
X110781027Y-68565752D02*
X110542932Y-69232419D01*
X110542932Y-69232419D02*
X110447694Y-69470514D01*
X110447694Y-69470514D02*
X110400075Y-69518133D01*
X110400075Y-69518133D02*
X110304837Y-69565752D01*
X111876266Y-69184800D02*
X112019123Y-69232419D01*
X112019123Y-69232419D02*
X112257218Y-69232419D01*
X112257218Y-69232419D02*
X112352456Y-69184800D01*
X112352456Y-69184800D02*
X112400075Y-69137180D01*
X112400075Y-69137180D02*
X112447694Y-69041942D01*
X112447694Y-69041942D02*
X112447694Y-68946704D01*
X112447694Y-68946704D02*
X112400075Y-68851466D01*
X112400075Y-68851466D02*
X112352456Y-68803847D01*
X112352456Y-68803847D02*
X112257218Y-68756228D01*
X112257218Y-68756228D02*
X112066742Y-68708609D01*
X112066742Y-68708609D02*
X111971504Y-68660990D01*
X111971504Y-68660990D02*
X111923885Y-68613371D01*
X111923885Y-68613371D02*
X111876266Y-68518133D01*
X111876266Y-68518133D02*
X111876266Y-68422895D01*
X111876266Y-68422895D02*
X111923885Y-68327657D01*
X111923885Y-68327657D02*
X111971504Y-68280038D01*
X111971504Y-68280038D02*
X112066742Y-68232419D01*
X112066742Y-68232419D02*
X112304837Y-68232419D01*
X112304837Y-68232419D02*
X112447694Y-68280038D01*
X113019123Y-69232419D02*
X112923885Y-69184800D01*
X112923885Y-69184800D02*
X112876266Y-69137180D01*
X112876266Y-69137180D02*
X112828647Y-69041942D01*
X112828647Y-69041942D02*
X112828647Y-68756228D01*
X112828647Y-68756228D02*
X112876266Y-68660990D01*
X112876266Y-68660990D02*
X112923885Y-68613371D01*
X112923885Y-68613371D02*
X113019123Y-68565752D01*
X113019123Y-68565752D02*
X113161980Y-68565752D01*
X113161980Y-68565752D02*
X113257218Y-68613371D01*
X113257218Y-68613371D02*
X113304837Y-68660990D01*
X113304837Y-68660990D02*
X113352456Y-68756228D01*
X113352456Y-68756228D02*
X113352456Y-69041942D01*
X113352456Y-69041942D02*
X113304837Y-69137180D01*
X113304837Y-69137180D02*
X113257218Y-69184800D01*
X113257218Y-69184800D02*
X113161980Y-69232419D01*
X113161980Y-69232419D02*
X113019123Y-69232419D01*
X113781028Y-69232419D02*
X113781028Y-68565752D01*
X113781028Y-68660990D02*
X113828647Y-68613371D01*
X113828647Y-68613371D02*
X113923885Y-68565752D01*
X113923885Y-68565752D02*
X114066742Y-68565752D01*
X114066742Y-68565752D02*
X114161980Y-68613371D01*
X114161980Y-68613371D02*
X114209599Y-68708609D01*
X114209599Y-68708609D02*
X114209599Y-69232419D01*
X114209599Y-68708609D02*
X114257218Y-68613371D01*
X114257218Y-68613371D02*
X114352456Y-68565752D01*
X114352456Y-68565752D02*
X114495313Y-68565752D01*
X114495313Y-68565752D02*
X114590552Y-68613371D01*
X114590552Y-68613371D02*
X114638171Y-68708609D01*
X114638171Y-68708609D02*
X114638171Y-69232419D01*
X115495313Y-69184800D02*
X115400075Y-69232419D01*
X115400075Y-69232419D02*
X115209599Y-69232419D01*
X115209599Y-69232419D02*
X115114361Y-69184800D01*
X115114361Y-69184800D02*
X115066742Y-69089561D01*
X115066742Y-69089561D02*
X115066742Y-68708609D01*
X115066742Y-68708609D02*
X115114361Y-68613371D01*
X115114361Y-68613371D02*
X115209599Y-68565752D01*
X115209599Y-68565752D02*
X115400075Y-68565752D01*
X115400075Y-68565752D02*
X115495313Y-68613371D01*
X115495313Y-68613371D02*
X115542932Y-68708609D01*
X115542932Y-68708609D02*
X115542932Y-68803847D01*
X115542932Y-68803847D02*
X115066742Y-68899085D01*
X116495313Y-69232419D02*
X115923885Y-69232419D01*
X116209599Y-69232419D02*
X116209599Y-68232419D01*
X116209599Y-68232419D02*
X116114361Y-68375276D01*
X116114361Y-68375276D02*
X116019123Y-68470514D01*
X116019123Y-68470514D02*
X115923885Y-68518133D01*
D10*
X153021653Y-75470828D02*
X154021653Y-76970828D01*
X154021653Y-75470828D02*
X153021653Y-76970828D01*
X154593081Y-76970828D02*
X154593081Y-75470828D01*
X155235939Y-76542257D02*
X155950225Y-76542257D01*
X155093082Y-76970828D02*
X155593082Y-75470828D01*
X155593082Y-75470828D02*
X156093082Y-76970828D01*
X156878796Y-75470828D02*
X157164510Y-75470828D01*
X157164510Y-75470828D02*
X157307367Y-75542257D01*
X157307367Y-75542257D02*
X157450224Y-75685114D01*
X157450224Y-75685114D02*
X157521653Y-75970828D01*
X157521653Y-75970828D02*
X157521653Y-76470828D01*
X157521653Y-76470828D02*
X157450224Y-76756542D01*
X157450224Y-76756542D02*
X157307367Y-76899400D01*
X157307367Y-76899400D02*
X157164510Y-76970828D01*
X157164510Y-76970828D02*
X156878796Y-76970828D01*
X156878796Y-76970828D02*
X156735939Y-76899400D01*
X156735939Y-76899400D02*
X156593081Y-76756542D01*
X156593081Y-76756542D02*
X156521653Y-76470828D01*
X156521653Y-76470828D02*
X156521653Y-75970828D01*
X156521653Y-75970828D02*
X156593081Y-75685114D01*
X156593081Y-75685114D02*
X156735939Y-75542257D01*
X156735939Y-75542257D02*
X156878796Y-75470828D01*
X159307367Y-76970828D02*
X159307367Y-75470828D01*
X159307367Y-76185114D02*
X160164510Y-76185114D01*
X160164510Y-76970828D02*
X160164510Y-75470828D01*
X160878796Y-76185114D02*
X161378796Y-76185114D01*
X161593082Y-76970828D02*
X160878796Y-76970828D01*
X160878796Y-76970828D02*
X160878796Y-75470828D01*
X160878796Y-75470828D02*
X161593082Y-75470828D01*
X163093082Y-76970828D02*
X162593082Y-76256542D01*
X162235939Y-76970828D02*
X162235939Y-75470828D01*
X162235939Y-75470828D02*
X162807368Y-75470828D01*
X162807368Y-75470828D02*
X162950225Y-75542257D01*
X162950225Y-75542257D02*
X163021654Y-75613685D01*
X163021654Y-75613685D02*
X163093082Y-75756542D01*
X163093082Y-75756542D02*
X163093082Y-75970828D01*
X163093082Y-75970828D02*
X163021654Y-76113685D01*
X163021654Y-76113685D02*
X162950225Y-76185114D01*
X162950225Y-76185114D02*
X162807368Y-76256542D01*
X162807368Y-76256542D02*
X162235939Y-76256542D01*
X163735939Y-76185114D02*
X164235939Y-76185114D01*
X164450225Y-76970828D02*
X163735939Y-76970828D01*
X163735939Y-76970828D02*
X163735939Y-75470828D01*
X163735939Y-75470828D02*
X164450225Y-75470828D01*
D12*
X132492917Y-91290925D02*
X132635774Y-91338544D01*
X132635774Y-91338544D02*
X132873869Y-91338544D01*
X132873869Y-91338544D02*
X132969107Y-91290925D01*
X132969107Y-91290925D02*
X133016726Y-91243305D01*
X133016726Y-91243305D02*
X133064345Y-91148067D01*
X133064345Y-91148067D02*
X133064345Y-91052829D01*
X133064345Y-91052829D02*
X133016726Y-90957591D01*
X133016726Y-90957591D02*
X132969107Y-90909972D01*
X132969107Y-90909972D02*
X132873869Y-90862353D01*
X132873869Y-90862353D02*
X132683393Y-90814734D01*
X132683393Y-90814734D02*
X132588155Y-90767115D01*
X132588155Y-90767115D02*
X132540536Y-90719496D01*
X132540536Y-90719496D02*
X132492917Y-90624258D01*
X132492917Y-90624258D02*
X132492917Y-90529020D01*
X132492917Y-90529020D02*
X132540536Y-90433782D01*
X132540536Y-90433782D02*
X132588155Y-90386163D01*
X132588155Y-90386163D02*
X132683393Y-90338544D01*
X132683393Y-90338544D02*
X132921488Y-90338544D01*
X132921488Y-90338544D02*
X133064345Y-90386163D01*
X133397679Y-90338544D02*
X133635774Y-91338544D01*
X133635774Y-91338544D02*
X133826250Y-90624258D01*
X133826250Y-90624258D02*
X134016726Y-91338544D01*
X134016726Y-91338544D02*
X134254822Y-90338544D01*
X134588155Y-90433782D02*
X134635774Y-90386163D01*
X134635774Y-90386163D02*
X134731012Y-90338544D01*
X134731012Y-90338544D02*
X134969107Y-90338544D01*
X134969107Y-90338544D02*
X135064345Y-90386163D01*
X135064345Y-90386163D02*
X135111964Y-90433782D01*
X135111964Y-90433782D02*
X135159583Y-90529020D01*
X135159583Y-90529020D02*
X135159583Y-90624258D01*
X135159583Y-90624258D02*
X135111964Y-90767115D01*
X135111964Y-90767115D02*
X134540536Y-91338544D01*
X134540536Y-91338544D02*
X135159583Y-91338544D01*
X138359819Y-77634808D02*
X139074104Y-77634808D01*
X139074104Y-77634808D02*
X139216961Y-77682427D01*
X139216961Y-77682427D02*
X139312200Y-77777665D01*
X139312200Y-77777665D02*
X139359819Y-77920522D01*
X139359819Y-77920522D02*
X139359819Y-78015760D01*
X139359819Y-76634808D02*
X139359819Y-77206236D01*
X139359819Y-76920522D02*
X138359819Y-76920522D01*
X138359819Y-76920522D02*
X138502676Y-77015760D01*
X138502676Y-77015760D02*
X138597914Y-77110998D01*
X138597914Y-77110998D02*
X138645533Y-77206236D01*
X117876428Y-76666294D02*
X118066904Y-76666294D01*
X118066904Y-76666294D02*
X118162142Y-76713913D01*
X118162142Y-76713913D02*
X118257380Y-76809151D01*
X118257380Y-76809151D02*
X118304999Y-76999627D01*
X118304999Y-76999627D02*
X118304999Y-77332960D01*
X118304999Y-77332960D02*
X118257380Y-77523436D01*
X118257380Y-77523436D02*
X118162142Y-77618675D01*
X118162142Y-77618675D02*
X118066904Y-77666294D01*
X118066904Y-77666294D02*
X117876428Y-77666294D01*
X117876428Y-77666294D02*
X117781190Y-77618675D01*
X117781190Y-77618675D02*
X117685952Y-77523436D01*
X117685952Y-77523436D02*
X117638333Y-77332960D01*
X117638333Y-77332960D02*
X117638333Y-76999627D01*
X117638333Y-76999627D02*
X117685952Y-76809151D01*
X117685952Y-76809151D02*
X117781190Y-76713913D01*
X117781190Y-76713913D02*
X117876428Y-76666294D01*
X119209761Y-77666294D02*
X118733571Y-77666294D01*
X118733571Y-77666294D02*
X118733571Y-76666294D01*
X119543095Y-77142484D02*
X119876428Y-77142484D01*
X120019285Y-77666294D02*
X119543095Y-77666294D01*
X119543095Y-77666294D02*
X119543095Y-76666294D01*
X119543095Y-76666294D02*
X120019285Y-76666294D01*
X120447857Y-77666294D02*
X120447857Y-76666294D01*
X120447857Y-76666294D02*
X120685952Y-76666294D01*
X120685952Y-76666294D02*
X120828809Y-76713913D01*
X120828809Y-76713913D02*
X120924047Y-76809151D01*
X120924047Y-76809151D02*
X120971666Y-76904389D01*
X120971666Y-76904389D02*
X121019285Y-77094865D01*
X121019285Y-77094865D02*
X121019285Y-77237722D01*
X121019285Y-77237722D02*
X120971666Y-77428198D01*
X120971666Y-77428198D02*
X120924047Y-77523436D01*
X120924047Y-77523436D02*
X120828809Y-77618675D01*
X120828809Y-77618675D02*
X120685952Y-77666294D01*
X120685952Y-77666294D02*
X120447857Y-77666294D01*
X122209762Y-77666294D02*
X122209762Y-76666294D01*
X122209762Y-76666294D02*
X122590714Y-76666294D01*
X122590714Y-76666294D02*
X122685952Y-76713913D01*
X122685952Y-76713913D02*
X122733571Y-76761532D01*
X122733571Y-76761532D02*
X122781190Y-76856770D01*
X122781190Y-76856770D02*
X122781190Y-76999627D01*
X122781190Y-76999627D02*
X122733571Y-77094865D01*
X122733571Y-77094865D02*
X122685952Y-77142484D01*
X122685952Y-77142484D02*
X122590714Y-77190103D01*
X122590714Y-77190103D02*
X122209762Y-77190103D01*
X123638333Y-77666294D02*
X123638333Y-77142484D01*
X123638333Y-77142484D02*
X123590714Y-77047246D01*
X123590714Y-77047246D02*
X123495476Y-76999627D01*
X123495476Y-76999627D02*
X123305000Y-76999627D01*
X123305000Y-76999627D02*
X123209762Y-77047246D01*
X123638333Y-77618675D02*
X123543095Y-77666294D01*
X123543095Y-77666294D02*
X123305000Y-77666294D01*
X123305000Y-77666294D02*
X123209762Y-77618675D01*
X123209762Y-77618675D02*
X123162143Y-77523436D01*
X123162143Y-77523436D02*
X123162143Y-77428198D01*
X123162143Y-77428198D02*
X123209762Y-77332960D01*
X123209762Y-77332960D02*
X123305000Y-77285341D01*
X123305000Y-77285341D02*
X123543095Y-77285341D01*
X123543095Y-77285341D02*
X123638333Y-77237722D01*
X124114524Y-76999627D02*
X124114524Y-77666294D01*
X124114524Y-77094865D02*
X124162143Y-77047246D01*
X124162143Y-77047246D02*
X124257381Y-76999627D01*
X124257381Y-76999627D02*
X124400238Y-76999627D01*
X124400238Y-76999627D02*
X124495476Y-77047246D01*
X124495476Y-77047246D02*
X124543095Y-77142484D01*
X124543095Y-77142484D02*
X124543095Y-77666294D01*
X125400238Y-77618675D02*
X125305000Y-77666294D01*
X125305000Y-77666294D02*
X125114524Y-77666294D01*
X125114524Y-77666294D02*
X125019286Y-77618675D01*
X125019286Y-77618675D02*
X124971667Y-77523436D01*
X124971667Y-77523436D02*
X124971667Y-77142484D01*
X124971667Y-77142484D02*
X125019286Y-77047246D01*
X125019286Y-77047246D02*
X125114524Y-76999627D01*
X125114524Y-76999627D02*
X125305000Y-76999627D01*
X125305000Y-76999627D02*
X125400238Y-77047246D01*
X125400238Y-77047246D02*
X125447857Y-77142484D01*
X125447857Y-77142484D02*
X125447857Y-77237722D01*
X125447857Y-77237722D02*
X124971667Y-77332960D01*
X126019286Y-77666294D02*
X125924048Y-77618675D01*
X125924048Y-77618675D02*
X125876429Y-77523436D01*
X125876429Y-77523436D02*
X125876429Y-76666294D01*
X105894164Y-79481474D02*
X106644164Y-79231474D01*
X106644164Y-79231474D02*
X105894164Y-78981474D01*
X106572735Y-78302903D02*
X106608450Y-78338617D01*
X106608450Y-78338617D02*
X106644164Y-78445760D01*
X106644164Y-78445760D02*
X106644164Y-78517188D01*
X106644164Y-78517188D02*
X106608450Y-78624331D01*
X106608450Y-78624331D02*
X106537021Y-78695760D01*
X106537021Y-78695760D02*
X106465592Y-78731474D01*
X106465592Y-78731474D02*
X106322735Y-78767188D01*
X106322735Y-78767188D02*
X106215592Y-78767188D01*
X106215592Y-78767188D02*
X106072735Y-78731474D01*
X106072735Y-78731474D02*
X106001307Y-78695760D01*
X106001307Y-78695760D02*
X105929878Y-78624331D01*
X105929878Y-78624331D02*
X105894164Y-78517188D01*
X105894164Y-78517188D02*
X105894164Y-78445760D01*
X105894164Y-78445760D02*
X105929878Y-78338617D01*
X105929878Y-78338617D02*
X105965592Y-78302903D01*
X106572735Y-77552903D02*
X106608450Y-77588617D01*
X106608450Y-77588617D02*
X106644164Y-77695760D01*
X106644164Y-77695760D02*
X106644164Y-77767188D01*
X106644164Y-77767188D02*
X106608450Y-77874331D01*
X106608450Y-77874331D02*
X106537021Y-77945760D01*
X106537021Y-77945760D02*
X106465592Y-77981474D01*
X106465592Y-77981474D02*
X106322735Y-78017188D01*
X106322735Y-78017188D02*
X106215592Y-78017188D01*
X106215592Y-78017188D02*
X106072735Y-77981474D01*
X106072735Y-77981474D02*
X106001307Y-77945760D01*
X106001307Y-77945760D02*
X105929878Y-77874331D01*
X105929878Y-77874331D02*
X105894164Y-77767188D01*
X105894164Y-77767188D02*
X105894164Y-77695760D01*
X105894164Y-77695760D02*
X105929878Y-77588617D01*
X105929878Y-77588617D02*
X105965592Y-77552903D01*
X106608450Y-76834331D02*
X106644164Y-76727189D01*
X106644164Y-76727189D02*
X106644164Y-76548617D01*
X106644164Y-76548617D02*
X106608450Y-76477189D01*
X106608450Y-76477189D02*
X106572735Y-76441474D01*
X106572735Y-76441474D02*
X106501307Y-76405760D01*
X106501307Y-76405760D02*
X106429878Y-76405760D01*
X106429878Y-76405760D02*
X106358450Y-76441474D01*
X106358450Y-76441474D02*
X106322735Y-76477189D01*
X106322735Y-76477189D02*
X106287021Y-76548617D01*
X106287021Y-76548617D02*
X106251307Y-76691474D01*
X106251307Y-76691474D02*
X106215592Y-76762903D01*
X106215592Y-76762903D02*
X106179878Y-76798617D01*
X106179878Y-76798617D02*
X106108450Y-76834331D01*
X106108450Y-76834331D02*
X106037021Y-76834331D01*
X106037021Y-76834331D02*
X105965592Y-76798617D01*
X105965592Y-76798617D02*
X105929878Y-76762903D01*
X105929878Y-76762903D02*
X105894164Y-76691474D01*
X105894164Y-76691474D02*
X105894164Y-76512903D01*
X105894164Y-76512903D02*
X105929878Y-76405760D01*
X106572735Y-75655760D02*
X106608450Y-75691474D01*
X106608450Y-75691474D02*
X106644164Y-75798617D01*
X106644164Y-75798617D02*
X106644164Y-75870045D01*
X106644164Y-75870045D02*
X106608450Y-75977188D01*
X106608450Y-75977188D02*
X106537021Y-76048617D01*
X106537021Y-76048617D02*
X106465592Y-76084331D01*
X106465592Y-76084331D02*
X106322735Y-76120045D01*
X106322735Y-76120045D02*
X106215592Y-76120045D01*
X106215592Y-76120045D02*
X106072735Y-76084331D01*
X106072735Y-76084331D02*
X106001307Y-76048617D01*
X106001307Y-76048617D02*
X105929878Y-75977188D01*
X105929878Y-75977188D02*
X105894164Y-75870045D01*
X105894164Y-75870045D02*
X105894164Y-75798617D01*
X105894164Y-75798617D02*
X105929878Y-75691474D01*
X105929878Y-75691474D02*
X105965592Y-75655760D01*
X106644164Y-74977188D02*
X106644164Y-75334331D01*
X106644164Y-75334331D02*
X105894164Y-75334331D01*
X105929878Y-81592903D02*
X105894164Y-81664332D01*
X105894164Y-81664332D02*
X105894164Y-81771474D01*
X105894164Y-81771474D02*
X105929878Y-81878617D01*
X105929878Y-81878617D02*
X106001307Y-81950046D01*
X106001307Y-81950046D02*
X106072735Y-81985760D01*
X106072735Y-81985760D02*
X106215592Y-82021474D01*
X106215592Y-82021474D02*
X106322735Y-82021474D01*
X106322735Y-82021474D02*
X106465592Y-81985760D01*
X106465592Y-81985760D02*
X106537021Y-81950046D01*
X106537021Y-81950046D02*
X106608450Y-81878617D01*
X106608450Y-81878617D02*
X106644164Y-81771474D01*
X106644164Y-81771474D02*
X106644164Y-81700046D01*
X106644164Y-81700046D02*
X106608450Y-81592903D01*
X106608450Y-81592903D02*
X106572735Y-81557189D01*
X106572735Y-81557189D02*
X106322735Y-81557189D01*
X106322735Y-81557189D02*
X106322735Y-81700046D01*
X106644164Y-81235760D02*
X105894164Y-81235760D01*
X105894164Y-81235760D02*
X106644164Y-80807189D01*
X106644164Y-80807189D02*
X105894164Y-80807189D01*
X106644164Y-80450046D02*
X105894164Y-80450046D01*
X105894164Y-80450046D02*
X105894164Y-80271475D01*
X105894164Y-80271475D02*
X105929878Y-80164332D01*
X105929878Y-80164332D02*
X106001307Y-80092903D01*
X106001307Y-80092903D02*
X106072735Y-80057189D01*
X106072735Y-80057189D02*
X106215592Y-80021475D01*
X106215592Y-80021475D02*
X106322735Y-80021475D01*
X106322735Y-80021475D02*
X106465592Y-80057189D01*
X106465592Y-80057189D02*
X106537021Y-80092903D01*
X106537021Y-80092903D02*
X106608450Y-80164332D01*
X106608450Y-80164332D02*
X106644164Y-80271475D01*
X106644164Y-80271475D02*
X106644164Y-80450046D01*
X106608450Y-74312188D02*
X106644164Y-74205046D01*
X106644164Y-74205046D02*
X106644164Y-74026474D01*
X106644164Y-74026474D02*
X106608450Y-73955046D01*
X106608450Y-73955046D02*
X106572735Y-73919331D01*
X106572735Y-73919331D02*
X106501307Y-73883617D01*
X106501307Y-73883617D02*
X106429878Y-73883617D01*
X106429878Y-73883617D02*
X106358450Y-73919331D01*
X106358450Y-73919331D02*
X106322735Y-73955046D01*
X106322735Y-73955046D02*
X106287021Y-74026474D01*
X106287021Y-74026474D02*
X106251307Y-74169331D01*
X106251307Y-74169331D02*
X106215592Y-74240760D01*
X106215592Y-74240760D02*
X106179878Y-74276474D01*
X106179878Y-74276474D02*
X106108450Y-74312188D01*
X106108450Y-74312188D02*
X106037021Y-74312188D01*
X106037021Y-74312188D02*
X105965592Y-74276474D01*
X105965592Y-74276474D02*
X105929878Y-74240760D01*
X105929878Y-74240760D02*
X105894164Y-74169331D01*
X105894164Y-74169331D02*
X105894164Y-73990760D01*
X105894164Y-73990760D02*
X105929878Y-73883617D01*
X106644164Y-73562188D02*
X105894164Y-73562188D01*
X105894164Y-73562188D02*
X105894164Y-73383617D01*
X105894164Y-73383617D02*
X105929878Y-73276474D01*
X105929878Y-73276474D02*
X106001307Y-73205045D01*
X106001307Y-73205045D02*
X106072735Y-73169331D01*
X106072735Y-73169331D02*
X106215592Y-73133617D01*
X106215592Y-73133617D02*
X106322735Y-73133617D01*
X106322735Y-73133617D02*
X106465592Y-73169331D01*
X106465592Y-73169331D02*
X106537021Y-73205045D01*
X106537021Y-73205045D02*
X106608450Y-73276474D01*
X106608450Y-73276474D02*
X106644164Y-73383617D01*
X106644164Y-73383617D02*
X106644164Y-73562188D01*
X106429878Y-72847902D02*
X106429878Y-72490760D01*
X106644164Y-72919331D02*
X105894164Y-72669331D01*
X105894164Y-72669331D02*
X106644164Y-72419331D01*
X151542917Y-91290925D02*
X151685774Y-91338544D01*
X151685774Y-91338544D02*
X151923869Y-91338544D01*
X151923869Y-91338544D02*
X152019107Y-91290925D01*
X152019107Y-91290925D02*
X152066726Y-91243305D01*
X152066726Y-91243305D02*
X152114345Y-91148067D01*
X152114345Y-91148067D02*
X152114345Y-91052829D01*
X152114345Y-91052829D02*
X152066726Y-90957591D01*
X152066726Y-90957591D02*
X152019107Y-90909972D01*
X152019107Y-90909972D02*
X151923869Y-90862353D01*
X151923869Y-90862353D02*
X151733393Y-90814734D01*
X151733393Y-90814734D02*
X151638155Y-90767115D01*
X151638155Y-90767115D02*
X151590536Y-90719496D01*
X151590536Y-90719496D02*
X151542917Y-90624258D01*
X151542917Y-90624258D02*
X151542917Y-90529020D01*
X151542917Y-90529020D02*
X151590536Y-90433782D01*
X151590536Y-90433782D02*
X151638155Y-90386163D01*
X151638155Y-90386163D02*
X151733393Y-90338544D01*
X151733393Y-90338544D02*
X151971488Y-90338544D01*
X151971488Y-90338544D02*
X152114345Y-90386163D01*
X152447679Y-90338544D02*
X152685774Y-91338544D01*
X152685774Y-91338544D02*
X152876250Y-90624258D01*
X152876250Y-90624258D02*
X153066726Y-91338544D01*
X153066726Y-91338544D02*
X153304822Y-90338544D01*
X153590536Y-90338544D02*
X154209583Y-90338544D01*
X154209583Y-90338544D02*
X153876250Y-90719496D01*
X153876250Y-90719496D02*
X154019107Y-90719496D01*
X154019107Y-90719496D02*
X154114345Y-90767115D01*
X154114345Y-90767115D02*
X154161964Y-90814734D01*
X154161964Y-90814734D02*
X154209583Y-90909972D01*
X154209583Y-90909972D02*
X154209583Y-91148067D01*
X154209583Y-91148067D02*
X154161964Y-91243305D01*
X154161964Y-91243305D02*
X154114345Y-91290925D01*
X154114345Y-91290925D02*
X154019107Y-91338544D01*
X154019107Y-91338544D02*
X153733393Y-91338544D01*
X153733393Y-91338544D02*
X153638155Y-91290925D01*
X153638155Y-91290925D02*
X153590536Y-91243305D01*
X151542917Y-129390925D02*
X151685774Y-129438544D01*
X151685774Y-129438544D02*
X151923869Y-129438544D01*
X151923869Y-129438544D02*
X152019107Y-129390925D01*
X152019107Y-129390925D02*
X152066726Y-129343305D01*
X152066726Y-129343305D02*
X152114345Y-129248067D01*
X152114345Y-129248067D02*
X152114345Y-129152829D01*
X152114345Y-129152829D02*
X152066726Y-129057591D01*
X152066726Y-129057591D02*
X152019107Y-129009972D01*
X152019107Y-129009972D02*
X151923869Y-128962353D01*
X151923869Y-128962353D02*
X151733393Y-128914734D01*
X151733393Y-128914734D02*
X151638155Y-128867115D01*
X151638155Y-128867115D02*
X151590536Y-128819496D01*
X151590536Y-128819496D02*
X151542917Y-128724258D01*
X151542917Y-128724258D02*
X151542917Y-128629020D01*
X151542917Y-128629020D02*
X151590536Y-128533782D01*
X151590536Y-128533782D02*
X151638155Y-128486163D01*
X151638155Y-128486163D02*
X151733393Y-128438544D01*
X151733393Y-128438544D02*
X151971488Y-128438544D01*
X151971488Y-128438544D02*
X152114345Y-128486163D01*
X152447679Y-128438544D02*
X152685774Y-129438544D01*
X152685774Y-129438544D02*
X152876250Y-128724258D01*
X152876250Y-128724258D02*
X153066726Y-129438544D01*
X153066726Y-129438544D02*
X153304822Y-128438544D01*
X153733393Y-129438544D02*
X153923869Y-129438544D01*
X153923869Y-129438544D02*
X154019107Y-129390925D01*
X154019107Y-129390925D02*
X154066726Y-129343305D01*
X154066726Y-129343305D02*
X154161964Y-129200448D01*
X154161964Y-129200448D02*
X154209583Y-129009972D01*
X154209583Y-129009972D02*
X154209583Y-128629020D01*
X154209583Y-128629020D02*
X154161964Y-128533782D01*
X154161964Y-128533782D02*
X154114345Y-128486163D01*
X154114345Y-128486163D02*
X154019107Y-128438544D01*
X154019107Y-128438544D02*
X153828631Y-128438544D01*
X153828631Y-128438544D02*
X153733393Y-128486163D01*
X153733393Y-128486163D02*
X153685774Y-128533782D01*
X153685774Y-128533782D02*
X153638155Y-128629020D01*
X153638155Y-128629020D02*
X153638155Y-128867115D01*
X153638155Y-128867115D02*
X153685774Y-128962353D01*
X153685774Y-128962353D02*
X153733393Y-129009972D01*
X153733393Y-129009972D02*
X153828631Y-129057591D01*
X153828631Y-129057591D02*
X154019107Y-129057591D01*
X154019107Y-129057591D02*
X154114345Y-129009972D01*
X154114345Y-129009972D02*
X154161964Y-128962353D01*
X154161964Y-128962353D02*
X154209583Y-128867115D01*
X113442917Y-129390925D02*
X113585774Y-129438544D01*
X113585774Y-129438544D02*
X113823869Y-129438544D01*
X113823869Y-129438544D02*
X113919107Y-129390925D01*
X113919107Y-129390925D02*
X113966726Y-129343305D01*
X113966726Y-129343305D02*
X114014345Y-129248067D01*
X114014345Y-129248067D02*
X114014345Y-129152829D01*
X114014345Y-129152829D02*
X113966726Y-129057591D01*
X113966726Y-129057591D02*
X113919107Y-129009972D01*
X113919107Y-129009972D02*
X113823869Y-128962353D01*
X113823869Y-128962353D02*
X113633393Y-128914734D01*
X113633393Y-128914734D02*
X113538155Y-128867115D01*
X113538155Y-128867115D02*
X113490536Y-128819496D01*
X113490536Y-128819496D02*
X113442917Y-128724258D01*
X113442917Y-128724258D02*
X113442917Y-128629020D01*
X113442917Y-128629020D02*
X113490536Y-128533782D01*
X113490536Y-128533782D02*
X113538155Y-128486163D01*
X113538155Y-128486163D02*
X113633393Y-128438544D01*
X113633393Y-128438544D02*
X113871488Y-128438544D01*
X113871488Y-128438544D02*
X114014345Y-128486163D01*
X114347679Y-128438544D02*
X114585774Y-129438544D01*
X114585774Y-129438544D02*
X114776250Y-128724258D01*
X114776250Y-128724258D02*
X114966726Y-129438544D01*
X114966726Y-129438544D02*
X115204822Y-128438544D01*
X115490536Y-128438544D02*
X116157202Y-128438544D01*
X116157202Y-128438544D02*
X115728631Y-129438544D01*
X132492917Y-129390925D02*
X132635774Y-129438544D01*
X132635774Y-129438544D02*
X132873869Y-129438544D01*
X132873869Y-129438544D02*
X132969107Y-129390925D01*
X132969107Y-129390925D02*
X133016726Y-129343305D01*
X133016726Y-129343305D02*
X133064345Y-129248067D01*
X133064345Y-129248067D02*
X133064345Y-129152829D01*
X133064345Y-129152829D02*
X133016726Y-129057591D01*
X133016726Y-129057591D02*
X132969107Y-129009972D01*
X132969107Y-129009972D02*
X132873869Y-128962353D01*
X132873869Y-128962353D02*
X132683393Y-128914734D01*
X132683393Y-128914734D02*
X132588155Y-128867115D01*
X132588155Y-128867115D02*
X132540536Y-128819496D01*
X132540536Y-128819496D02*
X132492917Y-128724258D01*
X132492917Y-128724258D02*
X132492917Y-128629020D01*
X132492917Y-128629020D02*
X132540536Y-128533782D01*
X132540536Y-128533782D02*
X132588155Y-128486163D01*
X132588155Y-128486163D02*
X132683393Y-128438544D01*
X132683393Y-128438544D02*
X132921488Y-128438544D01*
X132921488Y-128438544D02*
X133064345Y-128486163D01*
X133397679Y-128438544D02*
X133635774Y-129438544D01*
X133635774Y-129438544D02*
X133826250Y-128724258D01*
X133826250Y-128724258D02*
X134016726Y-129438544D01*
X134016726Y-129438544D02*
X134254822Y-128438544D01*
X134778631Y-128867115D02*
X134683393Y-128819496D01*
X134683393Y-128819496D02*
X134635774Y-128771877D01*
X134635774Y-128771877D02*
X134588155Y-128676639D01*
X134588155Y-128676639D02*
X134588155Y-128629020D01*
X134588155Y-128629020D02*
X134635774Y-128533782D01*
X134635774Y-128533782D02*
X134683393Y-128486163D01*
X134683393Y-128486163D02*
X134778631Y-128438544D01*
X134778631Y-128438544D02*
X134969107Y-128438544D01*
X134969107Y-128438544D02*
X135064345Y-128486163D01*
X135064345Y-128486163D02*
X135111964Y-128533782D01*
X135111964Y-128533782D02*
X135159583Y-128629020D01*
X135159583Y-128629020D02*
X135159583Y-128676639D01*
X135159583Y-128676639D02*
X135111964Y-128771877D01*
X135111964Y-128771877D02*
X135064345Y-128819496D01*
X135064345Y-128819496D02*
X134969107Y-128867115D01*
X134969107Y-128867115D02*
X134778631Y-128867115D01*
X134778631Y-128867115D02*
X134683393Y-128914734D01*
X134683393Y-128914734D02*
X134635774Y-128962353D01*
X134635774Y-128962353D02*
X134588155Y-129057591D01*
X134588155Y-129057591D02*
X134588155Y-129248067D01*
X134588155Y-129248067D02*
X134635774Y-129343305D01*
X134635774Y-129343305D02*
X134683393Y-129390925D01*
X134683393Y-129390925D02*
X134778631Y-129438544D01*
X134778631Y-129438544D02*
X134969107Y-129438544D01*
X134969107Y-129438544D02*
X135064345Y-129390925D01*
X135064345Y-129390925D02*
X135111964Y-129343305D01*
X135111964Y-129343305D02*
X135159583Y-129248067D01*
X135159583Y-129248067D02*
X135159583Y-129057591D01*
X135159583Y-129057591D02*
X135111964Y-128962353D01*
X135111964Y-128962353D02*
X135064345Y-128914734D01*
X135064345Y-128914734D02*
X134969107Y-128867115D01*
X132492917Y-110340925D02*
X132635774Y-110388544D01*
X132635774Y-110388544D02*
X132873869Y-110388544D01*
X132873869Y-110388544D02*
X132969107Y-110340925D01*
X132969107Y-110340925D02*
X133016726Y-110293305D01*
X133016726Y-110293305D02*
X133064345Y-110198067D01*
X133064345Y-110198067D02*
X133064345Y-110102829D01*
X133064345Y-110102829D02*
X133016726Y-110007591D01*
X133016726Y-110007591D02*
X132969107Y-109959972D01*
X132969107Y-109959972D02*
X132873869Y-109912353D01*
X132873869Y-109912353D02*
X132683393Y-109864734D01*
X132683393Y-109864734D02*
X132588155Y-109817115D01*
X132588155Y-109817115D02*
X132540536Y-109769496D01*
X132540536Y-109769496D02*
X132492917Y-109674258D01*
X132492917Y-109674258D02*
X132492917Y-109579020D01*
X132492917Y-109579020D02*
X132540536Y-109483782D01*
X132540536Y-109483782D02*
X132588155Y-109436163D01*
X132588155Y-109436163D02*
X132683393Y-109388544D01*
X132683393Y-109388544D02*
X132921488Y-109388544D01*
X132921488Y-109388544D02*
X133064345Y-109436163D01*
X133397679Y-109388544D02*
X133635774Y-110388544D01*
X133635774Y-110388544D02*
X133826250Y-109674258D01*
X133826250Y-109674258D02*
X134016726Y-110388544D01*
X134016726Y-110388544D02*
X134254822Y-109388544D01*
X135111964Y-109388544D02*
X134635774Y-109388544D01*
X134635774Y-109388544D02*
X134588155Y-109864734D01*
X134588155Y-109864734D02*
X134635774Y-109817115D01*
X134635774Y-109817115D02*
X134731012Y-109769496D01*
X134731012Y-109769496D02*
X134969107Y-109769496D01*
X134969107Y-109769496D02*
X135064345Y-109817115D01*
X135064345Y-109817115D02*
X135111964Y-109864734D01*
X135111964Y-109864734D02*
X135159583Y-109959972D01*
X135159583Y-109959972D02*
X135159583Y-110198067D01*
X135159583Y-110198067D02*
X135111964Y-110293305D01*
X135111964Y-110293305D02*
X135064345Y-110340925D01*
X135064345Y-110340925D02*
X134969107Y-110388544D01*
X134969107Y-110388544D02*
X134731012Y-110388544D01*
X134731012Y-110388544D02*
X134635774Y-110340925D01*
X134635774Y-110340925D02*
X134588155Y-110293305D01*
X151542917Y-110340925D02*
X151685774Y-110388544D01*
X151685774Y-110388544D02*
X151923869Y-110388544D01*
X151923869Y-110388544D02*
X152019107Y-110340925D01*
X152019107Y-110340925D02*
X152066726Y-110293305D01*
X152066726Y-110293305D02*
X152114345Y-110198067D01*
X152114345Y-110198067D02*
X152114345Y-110102829D01*
X152114345Y-110102829D02*
X152066726Y-110007591D01*
X152066726Y-110007591D02*
X152019107Y-109959972D01*
X152019107Y-109959972D02*
X151923869Y-109912353D01*
X151923869Y-109912353D02*
X151733393Y-109864734D01*
X151733393Y-109864734D02*
X151638155Y-109817115D01*
X151638155Y-109817115D02*
X151590536Y-109769496D01*
X151590536Y-109769496D02*
X151542917Y-109674258D01*
X151542917Y-109674258D02*
X151542917Y-109579020D01*
X151542917Y-109579020D02*
X151590536Y-109483782D01*
X151590536Y-109483782D02*
X151638155Y-109436163D01*
X151638155Y-109436163D02*
X151733393Y-109388544D01*
X151733393Y-109388544D02*
X151971488Y-109388544D01*
X151971488Y-109388544D02*
X152114345Y-109436163D01*
X152447679Y-109388544D02*
X152685774Y-110388544D01*
X152685774Y-110388544D02*
X152876250Y-109674258D01*
X152876250Y-109674258D02*
X153066726Y-110388544D01*
X153066726Y-110388544D02*
X153304822Y-109388544D01*
X154114345Y-109388544D02*
X153923869Y-109388544D01*
X153923869Y-109388544D02*
X153828631Y-109436163D01*
X153828631Y-109436163D02*
X153781012Y-109483782D01*
X153781012Y-109483782D02*
X153685774Y-109626639D01*
X153685774Y-109626639D02*
X153638155Y-109817115D01*
X153638155Y-109817115D02*
X153638155Y-110198067D01*
X153638155Y-110198067D02*
X153685774Y-110293305D01*
X153685774Y-110293305D02*
X153733393Y-110340925D01*
X153733393Y-110340925D02*
X153828631Y-110388544D01*
X153828631Y-110388544D02*
X154019107Y-110388544D01*
X154019107Y-110388544D02*
X154114345Y-110340925D01*
X154114345Y-110340925D02*
X154161964Y-110293305D01*
X154161964Y-110293305D02*
X154209583Y-110198067D01*
X154209583Y-110198067D02*
X154209583Y-109959972D01*
X154209583Y-109959972D02*
X154161964Y-109864734D01*
X154161964Y-109864734D02*
X154114345Y-109817115D01*
X154114345Y-109817115D02*
X154019107Y-109769496D01*
X154019107Y-109769496D02*
X153828631Y-109769496D01*
X153828631Y-109769496D02*
X153733393Y-109817115D01*
X153733393Y-109817115D02*
X153685774Y-109864734D01*
X153685774Y-109864734D02*
X153638155Y-109959972D01*
D13*
X169846520Y-67516190D02*
X169332473Y-67516190D01*
X169332473Y-67516190D02*
X169271997Y-67546428D01*
X169271997Y-67546428D02*
X169241759Y-67576666D01*
X169241759Y-67576666D02*
X169211520Y-67637142D01*
X169211520Y-67637142D02*
X169211520Y-67758095D01*
X169211520Y-67758095D02*
X169241759Y-67818571D01*
X169241759Y-67818571D02*
X169271997Y-67848809D01*
X169271997Y-67848809D02*
X169332473Y-67879047D01*
X169332473Y-67879047D02*
X169846520Y-67879047D01*
X169786044Y-68151190D02*
X169816282Y-68181428D01*
X169816282Y-68181428D02*
X169846520Y-68241904D01*
X169846520Y-68241904D02*
X169846520Y-68393095D01*
X169846520Y-68393095D02*
X169816282Y-68453571D01*
X169816282Y-68453571D02*
X169786044Y-68483809D01*
X169786044Y-68483809D02*
X169725568Y-68514047D01*
X169725568Y-68514047D02*
X169665092Y-68514047D01*
X169665092Y-68514047D02*
X169574378Y-68483809D01*
X169574378Y-68483809D02*
X169211520Y-68120952D01*
X169211520Y-68120952D02*
X169211520Y-68514047D01*
D12*
X114686667Y-106357200D02*
X114829524Y-106404819D01*
X114829524Y-106404819D02*
X115067619Y-106404819D01*
X115067619Y-106404819D02*
X115162857Y-106357200D01*
X115162857Y-106357200D02*
X115210476Y-106309580D01*
X115210476Y-106309580D02*
X115258095Y-106214342D01*
X115258095Y-106214342D02*
X115258095Y-106119104D01*
X115258095Y-106119104D02*
X115210476Y-106023866D01*
X115210476Y-106023866D02*
X115162857Y-105976247D01*
X115162857Y-105976247D02*
X115067619Y-105928628D01*
X115067619Y-105928628D02*
X114877143Y-105881009D01*
X114877143Y-105881009D02*
X114781905Y-105833390D01*
X114781905Y-105833390D02*
X114734286Y-105785771D01*
X114734286Y-105785771D02*
X114686667Y-105690533D01*
X114686667Y-105690533D02*
X114686667Y-105595295D01*
X114686667Y-105595295D02*
X114734286Y-105500057D01*
X114734286Y-105500057D02*
X114781905Y-105452438D01*
X114781905Y-105452438D02*
X114877143Y-105404819D01*
X114877143Y-105404819D02*
X115115238Y-105404819D01*
X115115238Y-105404819D02*
X115258095Y-105452438D01*
X115591429Y-105404819D02*
X115829524Y-106404819D01*
X115829524Y-106404819D02*
X116020000Y-105690533D01*
X116020000Y-105690533D02*
X116210476Y-106404819D01*
X116210476Y-106404819D02*
X116448572Y-105404819D01*
X117353333Y-106404819D02*
X116781905Y-106404819D01*
X117067619Y-106404819D02*
X117067619Y-105404819D01*
X117067619Y-105404819D02*
X116972381Y-105547676D01*
X116972381Y-105547676D02*
X116877143Y-105642914D01*
X116877143Y-105642914D02*
X116781905Y-105690533D01*
X113442917Y-110340925D02*
X113585774Y-110388544D01*
X113585774Y-110388544D02*
X113823869Y-110388544D01*
X113823869Y-110388544D02*
X113919107Y-110340925D01*
X113919107Y-110340925D02*
X113966726Y-110293305D01*
X113966726Y-110293305D02*
X114014345Y-110198067D01*
X114014345Y-110198067D02*
X114014345Y-110102829D01*
X114014345Y-110102829D02*
X113966726Y-110007591D01*
X113966726Y-110007591D02*
X113919107Y-109959972D01*
X113919107Y-109959972D02*
X113823869Y-109912353D01*
X113823869Y-109912353D02*
X113633393Y-109864734D01*
X113633393Y-109864734D02*
X113538155Y-109817115D01*
X113538155Y-109817115D02*
X113490536Y-109769496D01*
X113490536Y-109769496D02*
X113442917Y-109674258D01*
X113442917Y-109674258D02*
X113442917Y-109579020D01*
X113442917Y-109579020D02*
X113490536Y-109483782D01*
X113490536Y-109483782D02*
X113538155Y-109436163D01*
X113538155Y-109436163D02*
X113633393Y-109388544D01*
X113633393Y-109388544D02*
X113871488Y-109388544D01*
X113871488Y-109388544D02*
X114014345Y-109436163D01*
X114347679Y-109388544D02*
X114585774Y-110388544D01*
X114585774Y-110388544D02*
X114776250Y-109674258D01*
X114776250Y-109674258D02*
X114966726Y-110388544D01*
X114966726Y-110388544D02*
X115204822Y-109388544D01*
X116014345Y-109721877D02*
X116014345Y-110388544D01*
X115776250Y-109340925D02*
X115538155Y-110055210D01*
X115538155Y-110055210D02*
X116157202Y-110055210D01*
D14*
X126841250Y-91772725D02*
X140811250Y-91772725D01*
X126841250Y-105742725D02*
X126841250Y-91772725D01*
X140811250Y-91772725D02*
X140811250Y-105742725D01*
X140811250Y-105742725D02*
X126841250Y-105742725D01*
D15*
X102805000Y-71211475D02*
X102805000Y-83211475D01*
X102805000Y-83211475D02*
X140805000Y-83211475D01*
X107805000Y-83211475D02*
X107805000Y-71211475D01*
X137305000Y-83211475D02*
X137305000Y-71211475D01*
X140805000Y-71211475D02*
X102805000Y-71211475D01*
X140805000Y-83211475D02*
X140805000Y-71211475D01*
D14*
X145891250Y-91772725D02*
X159861250Y-91772725D01*
X145891250Y-105742725D02*
X145891250Y-91772725D01*
X159861250Y-91772725D02*
X159861250Y-105742725D01*
X159861250Y-105742725D02*
X145891250Y-105742725D01*
X145891250Y-129872725D02*
X159861250Y-129872725D01*
X145891250Y-143842725D02*
X145891250Y-129872725D01*
X159861250Y-129872725D02*
X159861250Y-143842725D01*
X159861250Y-143842725D02*
X145891250Y-143842725D01*
X107791250Y-129872725D02*
X121761250Y-129872725D01*
X107791250Y-143842725D02*
X107791250Y-129872725D01*
X121761250Y-129872725D02*
X121761250Y-143842725D01*
X121761250Y-143842725D02*
X107791250Y-143842725D01*
X126841250Y-129872725D02*
X140811250Y-129872725D01*
X126841250Y-143842725D02*
X126841250Y-129872725D01*
X140811250Y-129872725D02*
X140811250Y-143842725D01*
X140811250Y-143842725D02*
X126841250Y-143842725D01*
X126841250Y-110822725D02*
X140811250Y-110822725D01*
X126841250Y-124792725D02*
X126841250Y-110822725D01*
X140811250Y-110822725D02*
X140811250Y-124792725D01*
X140811250Y-124792725D02*
X126841250Y-124792725D01*
X145891250Y-110822725D02*
X159861250Y-110822725D01*
X145891250Y-124792725D02*
X145891250Y-110822725D01*
X159861250Y-110822725D02*
X159861250Y-124792725D01*
X159861250Y-124792725D02*
X145891250Y-124792725D01*
D16*
X147086000Y-69515000D02*
X147086000Y-83485000D01*
X148991000Y-67610000D02*
X166136000Y-67610000D01*
X148991000Y-85390000D02*
X166136000Y-85390000D01*
X168041000Y-72005000D02*
X168951272Y-72008728D01*
D11*
X168041000Y-83485000D02*
X168041000Y-69515000D01*
D16*
X168041000Y-83485000D02*
X168041000Y-69515000D01*
X168951000Y-81004000D02*
X168041000Y-81004000D01*
X169451000Y-72508728D02*
X169451000Y-80504000D01*
X147086000Y-69515000D02*
G75*
G02*
X148991000Y-67610000I1905001J-1D01*
G01*
X148991000Y-85390000D02*
G75*
G02*
X147086000Y-83485000I0J1905000D01*
G01*
X166136000Y-67610000D02*
G75*
G02*
X168041000Y-69515000I-1J-1905001D01*
G01*
X168041000Y-83485000D02*
G75*
G02*
X166136000Y-85390000I-1905000J0D01*
G01*
X168951272Y-72008728D02*
G75*
G02*
X169450999Y-72508728I-291J-500018D01*
G01*
X169451000Y-80504000D02*
G75*
G02*
X168951000Y-81004000I-500000J0D01*
G01*
D17*
X167172000Y-68693000D02*
G75*
G02*
X166668000Y-68693000I-252000J0D01*
G01*
X166668000Y-68693000D02*
G75*
G02*
X167172000Y-68693000I252000J0D01*
G01*
X168052000Y-67550000D02*
G75*
G02*
X167548000Y-67550000I-252000J0D01*
G01*
X167548000Y-67550000D02*
G75*
G02*
X168052000Y-67550000I252000J0D01*
G01*
D14*
X105220000Y-92850000D02*
X109320000Y-92850000D01*
X105220000Y-95250000D02*
X105220000Y-92850000D01*
X105220000Y-100050000D02*
X105220000Y-97450000D01*
X105220000Y-104650000D02*
X105220000Y-102250000D01*
X109320000Y-104650000D02*
X105220000Y-104650000D01*
X111320000Y-99250000D02*
X111320000Y-98250000D01*
X111820000Y-98750000D02*
X110820000Y-98750000D01*
X113320000Y-92850000D02*
X117420000Y-92850000D01*
X113320000Y-104650000D02*
X117420000Y-104650000D01*
X117420000Y-104650000D02*
X117420000Y-92850000D01*
X118520000Y-102850000D02*
X118820000Y-102550000D01*
X118820000Y-102550000D02*
X119120000Y-102850000D01*
X119120000Y-102850000D02*
X118520000Y-102850000D01*
X114320000Y-98750000D02*
G75*
G02*
X108320000Y-98750000I-3000000J0D01*
G01*
X108320000Y-98750000D02*
G75*
G02*
X114320000Y-98750000I3000000J0D01*
G01*
X107791250Y-110822725D02*
X121761250Y-110822725D01*
X107791250Y-124792725D02*
X107791250Y-110822725D01*
X121761250Y-110822725D02*
X121761250Y-124792725D01*
X121761250Y-124792725D02*
X107791250Y-124792725D01*
M02*
