G04 #@! TF.GenerationSoftware,KiCad,Pcbnew,9.0.3*
G04 #@! TF.CreationDate,2025-07-29T19:53:29+10:00*
G04 #@! TF.ProjectId,NyaPad,4e796150-6164-42e6-9b69-6361645f7063,rev?*
G04 #@! TF.SameCoordinates,Original*
G04 #@! TF.FileFunction,Legend,Bot*
G04 #@! TF.FilePolarity,Positive*
%FSLAX46Y46*%
G04 Gerber Fmt 4.6, Leading zero omitted, Abs format (unit mm)*
G04 Created by KiCad (PCBNEW 9.0.3) date 2025-07-29 19:53:29*
%MOMM*%
%LPD*%
G01*
G04 APERTURE LIST*
%ADD10C,0.150000*%
%ADD11C,0.120000*%
G04 APERTURE END LIST*
D10*
X145926069Y-97067130D02*
X144926069Y-97067130D01*
X144926069Y-97067130D02*
X144926069Y-97305225D01*
X144926069Y-97305225D02*
X144973688Y-97448082D01*
X144973688Y-97448082D02*
X145068926Y-97543320D01*
X145068926Y-97543320D02*
X145164164Y-97590939D01*
X145164164Y-97590939D02*
X145354640Y-97638558D01*
X145354640Y-97638558D02*
X145497497Y-97638558D01*
X145497497Y-97638558D02*
X145687973Y-97590939D01*
X145687973Y-97590939D02*
X145783211Y-97543320D01*
X145783211Y-97543320D02*
X145878450Y-97448082D01*
X145878450Y-97448082D02*
X145926069Y-97305225D01*
X145926069Y-97305225D02*
X145926069Y-97067130D01*
X145021307Y-98019511D02*
X144973688Y-98067130D01*
X144973688Y-98067130D02*
X144926069Y-98162368D01*
X144926069Y-98162368D02*
X144926069Y-98400463D01*
X144926069Y-98400463D02*
X144973688Y-98495701D01*
X144973688Y-98495701D02*
X145021307Y-98543320D01*
X145021307Y-98543320D02*
X145116545Y-98590939D01*
X145116545Y-98590939D02*
X145211783Y-98590939D01*
X145211783Y-98590939D02*
X145354640Y-98543320D01*
X145354640Y-98543320D02*
X145926069Y-97971892D01*
X145926069Y-97971892D02*
X145926069Y-98590939D01*
X145606069Y-101353320D02*
X144606069Y-101353320D01*
X145606069Y-101924748D02*
X145034640Y-101496177D01*
X144606069Y-101924748D02*
X145177497Y-101353320D01*
X164976069Y-97067130D02*
X163976069Y-97067130D01*
X163976069Y-97067130D02*
X163976069Y-97305225D01*
X163976069Y-97305225D02*
X164023688Y-97448082D01*
X164023688Y-97448082D02*
X164118926Y-97543320D01*
X164118926Y-97543320D02*
X164214164Y-97590939D01*
X164214164Y-97590939D02*
X164404640Y-97638558D01*
X164404640Y-97638558D02*
X164547497Y-97638558D01*
X164547497Y-97638558D02*
X164737973Y-97590939D01*
X164737973Y-97590939D02*
X164833211Y-97543320D01*
X164833211Y-97543320D02*
X164928450Y-97448082D01*
X164928450Y-97448082D02*
X164976069Y-97305225D01*
X164976069Y-97305225D02*
X164976069Y-97067130D01*
X163976069Y-97971892D02*
X163976069Y-98590939D01*
X163976069Y-98590939D02*
X164357021Y-98257606D01*
X164357021Y-98257606D02*
X164357021Y-98400463D01*
X164357021Y-98400463D02*
X164404640Y-98495701D01*
X164404640Y-98495701D02*
X164452259Y-98543320D01*
X164452259Y-98543320D02*
X164547497Y-98590939D01*
X164547497Y-98590939D02*
X164785592Y-98590939D01*
X164785592Y-98590939D02*
X164880830Y-98543320D01*
X164880830Y-98543320D02*
X164928450Y-98495701D01*
X164928450Y-98495701D02*
X164976069Y-98400463D01*
X164976069Y-98400463D02*
X164976069Y-98114749D01*
X164976069Y-98114749D02*
X164928450Y-98019511D01*
X164928450Y-98019511D02*
X164880830Y-97971892D01*
X164656069Y-101353320D02*
X163656069Y-101353320D01*
X164656069Y-101924748D02*
X164084640Y-101496177D01*
X163656069Y-101924748D02*
X164227497Y-101353320D01*
X145926069Y-116117130D02*
X144926069Y-116117130D01*
X144926069Y-116117130D02*
X144926069Y-116355225D01*
X144926069Y-116355225D02*
X144973688Y-116498082D01*
X144973688Y-116498082D02*
X145068926Y-116593320D01*
X145068926Y-116593320D02*
X145164164Y-116640939D01*
X145164164Y-116640939D02*
X145354640Y-116688558D01*
X145354640Y-116688558D02*
X145497497Y-116688558D01*
X145497497Y-116688558D02*
X145687973Y-116640939D01*
X145687973Y-116640939D02*
X145783211Y-116593320D01*
X145783211Y-116593320D02*
X145878450Y-116498082D01*
X145878450Y-116498082D02*
X145926069Y-116355225D01*
X145926069Y-116355225D02*
X145926069Y-116117130D01*
X144926069Y-117593320D02*
X144926069Y-117117130D01*
X144926069Y-117117130D02*
X145402259Y-117069511D01*
X145402259Y-117069511D02*
X145354640Y-117117130D01*
X145354640Y-117117130D02*
X145307021Y-117212368D01*
X145307021Y-117212368D02*
X145307021Y-117450463D01*
X145307021Y-117450463D02*
X145354640Y-117545701D01*
X145354640Y-117545701D02*
X145402259Y-117593320D01*
X145402259Y-117593320D02*
X145497497Y-117640939D01*
X145497497Y-117640939D02*
X145735592Y-117640939D01*
X145735592Y-117640939D02*
X145830830Y-117593320D01*
X145830830Y-117593320D02*
X145878450Y-117545701D01*
X145878450Y-117545701D02*
X145926069Y-117450463D01*
X145926069Y-117450463D02*
X145926069Y-117212368D01*
X145926069Y-117212368D02*
X145878450Y-117117130D01*
X145878450Y-117117130D02*
X145830830Y-117069511D01*
X145606069Y-120403320D02*
X144606069Y-120403320D01*
X145606069Y-120974748D02*
X145034640Y-120546177D01*
X144606069Y-120974748D02*
X145177497Y-120403320D01*
X126876069Y-116117130D02*
X125876069Y-116117130D01*
X125876069Y-116117130D02*
X125876069Y-116355225D01*
X125876069Y-116355225D02*
X125923688Y-116498082D01*
X125923688Y-116498082D02*
X126018926Y-116593320D01*
X126018926Y-116593320D02*
X126114164Y-116640939D01*
X126114164Y-116640939D02*
X126304640Y-116688558D01*
X126304640Y-116688558D02*
X126447497Y-116688558D01*
X126447497Y-116688558D02*
X126637973Y-116640939D01*
X126637973Y-116640939D02*
X126733211Y-116593320D01*
X126733211Y-116593320D02*
X126828450Y-116498082D01*
X126828450Y-116498082D02*
X126876069Y-116355225D01*
X126876069Y-116355225D02*
X126876069Y-116117130D01*
X126209402Y-117545701D02*
X126876069Y-117545701D01*
X125828450Y-117307606D02*
X126542735Y-117069511D01*
X126542735Y-117069511D02*
X126542735Y-117688558D01*
X126556069Y-120403320D02*
X125556069Y-120403320D01*
X126556069Y-120974748D02*
X125984640Y-120546177D01*
X125556069Y-120974748D02*
X126127497Y-120403320D01*
X145926069Y-135167130D02*
X144926069Y-135167130D01*
X144926069Y-135167130D02*
X144926069Y-135405225D01*
X144926069Y-135405225D02*
X144973688Y-135548082D01*
X144973688Y-135548082D02*
X145068926Y-135643320D01*
X145068926Y-135643320D02*
X145164164Y-135690939D01*
X145164164Y-135690939D02*
X145354640Y-135738558D01*
X145354640Y-135738558D02*
X145497497Y-135738558D01*
X145497497Y-135738558D02*
X145687973Y-135690939D01*
X145687973Y-135690939D02*
X145783211Y-135643320D01*
X145783211Y-135643320D02*
X145878450Y-135548082D01*
X145878450Y-135548082D02*
X145926069Y-135405225D01*
X145926069Y-135405225D02*
X145926069Y-135167130D01*
X145354640Y-136309987D02*
X145307021Y-136214749D01*
X145307021Y-136214749D02*
X145259402Y-136167130D01*
X145259402Y-136167130D02*
X145164164Y-136119511D01*
X145164164Y-136119511D02*
X145116545Y-136119511D01*
X145116545Y-136119511D02*
X145021307Y-136167130D01*
X145021307Y-136167130D02*
X144973688Y-136214749D01*
X144973688Y-136214749D02*
X144926069Y-136309987D01*
X144926069Y-136309987D02*
X144926069Y-136500463D01*
X144926069Y-136500463D02*
X144973688Y-136595701D01*
X144973688Y-136595701D02*
X145021307Y-136643320D01*
X145021307Y-136643320D02*
X145116545Y-136690939D01*
X145116545Y-136690939D02*
X145164164Y-136690939D01*
X145164164Y-136690939D02*
X145259402Y-136643320D01*
X145259402Y-136643320D02*
X145307021Y-136595701D01*
X145307021Y-136595701D02*
X145354640Y-136500463D01*
X145354640Y-136500463D02*
X145354640Y-136309987D01*
X145354640Y-136309987D02*
X145402259Y-136214749D01*
X145402259Y-136214749D02*
X145449878Y-136167130D01*
X145449878Y-136167130D02*
X145545116Y-136119511D01*
X145545116Y-136119511D02*
X145735592Y-136119511D01*
X145735592Y-136119511D02*
X145830830Y-136167130D01*
X145830830Y-136167130D02*
X145878450Y-136214749D01*
X145878450Y-136214749D02*
X145926069Y-136309987D01*
X145926069Y-136309987D02*
X145926069Y-136500463D01*
X145926069Y-136500463D02*
X145878450Y-136595701D01*
X145878450Y-136595701D02*
X145830830Y-136643320D01*
X145830830Y-136643320D02*
X145735592Y-136690939D01*
X145735592Y-136690939D02*
X145545116Y-136690939D01*
X145545116Y-136690939D02*
X145449878Y-136643320D01*
X145449878Y-136643320D02*
X145402259Y-136595701D01*
X145402259Y-136595701D02*
X145354640Y-136500463D01*
X145606069Y-139453320D02*
X144606069Y-139453320D01*
X145606069Y-140024748D02*
X145034640Y-139596177D01*
X144606069Y-140024748D02*
X145177497Y-139453320D01*
X164976069Y-135167130D02*
X163976069Y-135167130D01*
X163976069Y-135167130D02*
X163976069Y-135405225D01*
X163976069Y-135405225D02*
X164023688Y-135548082D01*
X164023688Y-135548082D02*
X164118926Y-135643320D01*
X164118926Y-135643320D02*
X164214164Y-135690939D01*
X164214164Y-135690939D02*
X164404640Y-135738558D01*
X164404640Y-135738558D02*
X164547497Y-135738558D01*
X164547497Y-135738558D02*
X164737973Y-135690939D01*
X164737973Y-135690939D02*
X164833211Y-135643320D01*
X164833211Y-135643320D02*
X164928450Y-135548082D01*
X164928450Y-135548082D02*
X164976069Y-135405225D01*
X164976069Y-135405225D02*
X164976069Y-135167130D01*
X164976069Y-136214749D02*
X164976069Y-136405225D01*
X164976069Y-136405225D02*
X164928450Y-136500463D01*
X164928450Y-136500463D02*
X164880830Y-136548082D01*
X164880830Y-136548082D02*
X164737973Y-136643320D01*
X164737973Y-136643320D02*
X164547497Y-136690939D01*
X164547497Y-136690939D02*
X164166545Y-136690939D01*
X164166545Y-136690939D02*
X164071307Y-136643320D01*
X164071307Y-136643320D02*
X164023688Y-136595701D01*
X164023688Y-136595701D02*
X163976069Y-136500463D01*
X163976069Y-136500463D02*
X163976069Y-136309987D01*
X163976069Y-136309987D02*
X164023688Y-136214749D01*
X164023688Y-136214749D02*
X164071307Y-136167130D01*
X164071307Y-136167130D02*
X164166545Y-136119511D01*
X164166545Y-136119511D02*
X164404640Y-136119511D01*
X164404640Y-136119511D02*
X164499878Y-136167130D01*
X164499878Y-136167130D02*
X164547497Y-136214749D01*
X164547497Y-136214749D02*
X164595116Y-136309987D01*
X164595116Y-136309987D02*
X164595116Y-136500463D01*
X164595116Y-136500463D02*
X164547497Y-136595701D01*
X164547497Y-136595701D02*
X164499878Y-136643320D01*
X164499878Y-136643320D02*
X164404640Y-136690939D01*
X164656069Y-139453320D02*
X163656069Y-139453320D01*
X164656069Y-140024748D02*
X164084640Y-139596177D01*
X163656069Y-140024748D02*
X164227497Y-139453320D01*
X126876069Y-97067130D02*
X125876069Y-97067130D01*
X125876069Y-97067130D02*
X125876069Y-97305225D01*
X125876069Y-97305225D02*
X125923688Y-97448082D01*
X125923688Y-97448082D02*
X126018926Y-97543320D01*
X126018926Y-97543320D02*
X126114164Y-97590939D01*
X126114164Y-97590939D02*
X126304640Y-97638558D01*
X126304640Y-97638558D02*
X126447497Y-97638558D01*
X126447497Y-97638558D02*
X126637973Y-97590939D01*
X126637973Y-97590939D02*
X126733211Y-97543320D01*
X126733211Y-97543320D02*
X126828450Y-97448082D01*
X126828450Y-97448082D02*
X126876069Y-97305225D01*
X126876069Y-97305225D02*
X126876069Y-97067130D01*
X126876069Y-98590939D02*
X126876069Y-98019511D01*
X126876069Y-98305225D02*
X125876069Y-98305225D01*
X125876069Y-98305225D02*
X126018926Y-98209987D01*
X126018926Y-98209987D02*
X126114164Y-98114749D01*
X126114164Y-98114749D02*
X126161783Y-98019511D01*
X126556069Y-101353320D02*
X125556069Y-101353320D01*
X126556069Y-101924748D02*
X125984640Y-101496177D01*
X125556069Y-101924748D02*
X126127497Y-101353320D01*
X164976069Y-116117130D02*
X163976069Y-116117130D01*
X163976069Y-116117130D02*
X163976069Y-116355225D01*
X163976069Y-116355225D02*
X164023688Y-116498082D01*
X164023688Y-116498082D02*
X164118926Y-116593320D01*
X164118926Y-116593320D02*
X164214164Y-116640939D01*
X164214164Y-116640939D02*
X164404640Y-116688558D01*
X164404640Y-116688558D02*
X164547497Y-116688558D01*
X164547497Y-116688558D02*
X164737973Y-116640939D01*
X164737973Y-116640939D02*
X164833211Y-116593320D01*
X164833211Y-116593320D02*
X164928450Y-116498082D01*
X164928450Y-116498082D02*
X164976069Y-116355225D01*
X164976069Y-116355225D02*
X164976069Y-116117130D01*
X163976069Y-117545701D02*
X163976069Y-117355225D01*
X163976069Y-117355225D02*
X164023688Y-117259987D01*
X164023688Y-117259987D02*
X164071307Y-117212368D01*
X164071307Y-117212368D02*
X164214164Y-117117130D01*
X164214164Y-117117130D02*
X164404640Y-117069511D01*
X164404640Y-117069511D02*
X164785592Y-117069511D01*
X164785592Y-117069511D02*
X164880830Y-117117130D01*
X164880830Y-117117130D02*
X164928450Y-117164749D01*
X164928450Y-117164749D02*
X164976069Y-117259987D01*
X164976069Y-117259987D02*
X164976069Y-117450463D01*
X164976069Y-117450463D02*
X164928450Y-117545701D01*
X164928450Y-117545701D02*
X164880830Y-117593320D01*
X164880830Y-117593320D02*
X164785592Y-117640939D01*
X164785592Y-117640939D02*
X164547497Y-117640939D01*
X164547497Y-117640939D02*
X164452259Y-117593320D01*
X164452259Y-117593320D02*
X164404640Y-117545701D01*
X164404640Y-117545701D02*
X164357021Y-117450463D01*
X164357021Y-117450463D02*
X164357021Y-117259987D01*
X164357021Y-117259987D02*
X164404640Y-117164749D01*
X164404640Y-117164749D02*
X164452259Y-117117130D01*
X164452259Y-117117130D02*
X164547497Y-117069511D01*
X164656069Y-120403320D02*
X163656069Y-120403320D01*
X164656069Y-120974748D02*
X164084640Y-120546177D01*
X163656069Y-120974748D02*
X164227497Y-120403320D01*
X126876069Y-135167130D02*
X125876069Y-135167130D01*
X125876069Y-135167130D02*
X125876069Y-135405225D01*
X125876069Y-135405225D02*
X125923688Y-135548082D01*
X125923688Y-135548082D02*
X126018926Y-135643320D01*
X126018926Y-135643320D02*
X126114164Y-135690939D01*
X126114164Y-135690939D02*
X126304640Y-135738558D01*
X126304640Y-135738558D02*
X126447497Y-135738558D01*
X126447497Y-135738558D02*
X126637973Y-135690939D01*
X126637973Y-135690939D02*
X126733211Y-135643320D01*
X126733211Y-135643320D02*
X126828450Y-135548082D01*
X126828450Y-135548082D02*
X126876069Y-135405225D01*
X126876069Y-135405225D02*
X126876069Y-135167130D01*
X125876069Y-136071892D02*
X125876069Y-136738558D01*
X125876069Y-136738558D02*
X126876069Y-136309987D01*
X126556069Y-139453320D02*
X125556069Y-139453320D01*
X126556069Y-140024748D02*
X125984640Y-139596177D01*
X125556069Y-140024748D02*
X126127497Y-139453320D01*
D11*
X143351250Y-95035225D02*
X143351250Y-95685225D01*
X143351250Y-100575225D02*
X143351250Y-99925225D01*
X144471250Y-99085225D02*
X142231250Y-99085225D01*
X144471250Y-99205225D02*
X142231250Y-99205225D01*
X144471250Y-99325225D02*
X142231250Y-99325225D01*
X144471250Y-99925225D02*
X142231250Y-99925225D01*
X142231250Y-95685225D01*
X144471250Y-95685225D01*
X144471250Y-99925225D01*
X162401250Y-95035225D02*
X162401250Y-95685225D01*
X162401250Y-100575225D02*
X162401250Y-99925225D01*
X163521250Y-99085225D02*
X161281250Y-99085225D01*
X163521250Y-99205225D02*
X161281250Y-99205225D01*
X163521250Y-99325225D02*
X161281250Y-99325225D01*
X163521250Y-99925225D02*
X161281250Y-99925225D01*
X161281250Y-95685225D01*
X163521250Y-95685225D01*
X163521250Y-99925225D01*
X143351250Y-114085225D02*
X143351250Y-114735225D01*
X143351250Y-119625225D02*
X143351250Y-118975225D01*
X144471250Y-118135225D02*
X142231250Y-118135225D01*
X144471250Y-118255225D02*
X142231250Y-118255225D01*
X144471250Y-118375225D02*
X142231250Y-118375225D01*
X144471250Y-118975225D02*
X142231250Y-118975225D01*
X142231250Y-114735225D01*
X144471250Y-114735225D01*
X144471250Y-118975225D01*
X124301250Y-114085225D02*
X124301250Y-114735225D01*
X124301250Y-119625225D02*
X124301250Y-118975225D01*
X125421250Y-118135225D02*
X123181250Y-118135225D01*
X125421250Y-118255225D02*
X123181250Y-118255225D01*
X125421250Y-118375225D02*
X123181250Y-118375225D01*
X125421250Y-118975225D02*
X123181250Y-118975225D01*
X123181250Y-114735225D01*
X125421250Y-114735225D01*
X125421250Y-118975225D01*
X143351250Y-133135225D02*
X143351250Y-133785225D01*
X143351250Y-138675225D02*
X143351250Y-138025225D01*
X144471250Y-137185225D02*
X142231250Y-137185225D01*
X144471250Y-137305225D02*
X142231250Y-137305225D01*
X144471250Y-137425225D02*
X142231250Y-137425225D01*
X144471250Y-138025225D02*
X142231250Y-138025225D01*
X142231250Y-133785225D01*
X144471250Y-133785225D01*
X144471250Y-138025225D01*
X162401250Y-133135225D02*
X162401250Y-133785225D01*
X162401250Y-138675225D02*
X162401250Y-138025225D01*
X163521250Y-137185225D02*
X161281250Y-137185225D01*
X163521250Y-137305225D02*
X161281250Y-137305225D01*
X163521250Y-137425225D02*
X161281250Y-137425225D01*
X163521250Y-138025225D02*
X161281250Y-138025225D01*
X161281250Y-133785225D01*
X163521250Y-133785225D01*
X163521250Y-138025225D01*
X124301250Y-95035225D02*
X124301250Y-95685225D01*
X124301250Y-100575225D02*
X124301250Y-99925225D01*
X125421250Y-99085225D02*
X123181250Y-99085225D01*
X125421250Y-99205225D02*
X123181250Y-99205225D01*
X125421250Y-99325225D02*
X123181250Y-99325225D01*
X125421250Y-99925225D02*
X123181250Y-99925225D01*
X123181250Y-95685225D01*
X125421250Y-95685225D01*
X125421250Y-99925225D01*
X162401250Y-114085225D02*
X162401250Y-114735225D01*
X162401250Y-119625225D02*
X162401250Y-118975225D01*
X163521250Y-118135225D02*
X161281250Y-118135225D01*
X163521250Y-118255225D02*
X161281250Y-118255225D01*
X163521250Y-118375225D02*
X161281250Y-118375225D01*
X163521250Y-118975225D02*
X161281250Y-118975225D01*
X161281250Y-114735225D01*
X163521250Y-114735225D01*
X163521250Y-118975225D01*
X124301250Y-133135225D02*
X124301250Y-133785225D01*
X124301250Y-138675225D02*
X124301250Y-138025225D01*
X125421250Y-137185225D02*
X123181250Y-137185225D01*
X125421250Y-137305225D02*
X123181250Y-137305225D01*
X125421250Y-137425225D02*
X123181250Y-137425225D01*
X125421250Y-138025225D02*
X123181250Y-138025225D01*
X123181250Y-133785225D01*
X125421250Y-133785225D01*
X125421250Y-138025225D01*
M02*
