%TF.GenerationSoftware,KiCad,Pcbnew,9.0.3*%
%TF.CreationDate,2025-07-29T19:54:15+10:00*%
%TF.ProjectId,NyaPad,4e796150-6164-42e6-9b69-6361645f7063,rev?*%
%TF.SameCoordinates,Original*%
%TF.FileFunction,Drillmap*%
%TF.FilePolarity,Positive*%
%FSLAX45Y45*%
G04 Gerber Fmt 4.5, Leading zero omitted, Abs format (unit mm)*
G04 Created by KiCad (PCBNEW 9.0.3) date 2025-07-29 19:54:15*
%MOMM*%
%LPD*%
G01*
G04 APERTURE LIST*
%ADD10C,0.050000*%
%ADD11C,0.200000*%
%ADD12C,0.170000*%
%ADD13C,0.400000*%
G04 APERTURE END LIST*
D10*
X10020000Y-6200000D02*
X16820000Y-6200000D01*
X16820000Y-15000000D01*
X10020000Y-15000000D01*
X10020000Y-6200000D01*
D11*
D12*
X10884625Y-11695772D02*
X11054625Y-11865772D01*
X11054625Y-11695772D02*
X10884625Y-11865772D01*
X10884625Y-13600772D02*
X11054625Y-13770772D01*
X11054625Y-13600772D02*
X10884625Y-13770772D01*
X11900625Y-11695772D02*
X12070625Y-11865772D01*
X12070625Y-11695772D02*
X11900625Y-11865772D01*
X11900625Y-13600772D02*
X12070625Y-13770772D01*
X12070625Y-13600772D02*
X11900625Y-13770772D01*
X12789625Y-9790773D02*
X12959625Y-9960773D01*
X12959625Y-9790773D02*
X12789625Y-9960773D01*
X12789625Y-11695772D02*
X12959625Y-11865772D01*
X12959625Y-11695772D02*
X12789625Y-11865772D01*
X12789625Y-13600772D02*
X12959625Y-13770772D01*
X12959625Y-13600772D02*
X12789625Y-13770772D01*
X13805625Y-9790773D02*
X13975625Y-9960773D01*
X13975625Y-9790773D02*
X13805625Y-9960773D01*
X13805625Y-11695772D02*
X13975625Y-11865772D01*
X13975625Y-11695772D02*
X13805625Y-11865772D01*
X13805625Y-13600772D02*
X13975625Y-13770772D01*
X13975625Y-13600772D02*
X13805625Y-13770772D01*
X14694625Y-9790773D02*
X14864625Y-9960773D01*
X14864625Y-9790773D02*
X14694625Y-9960773D01*
X14694625Y-11695772D02*
X14864625Y-11865772D01*
X14864625Y-11695772D02*
X14694625Y-11865772D01*
X14694625Y-13600772D02*
X14864625Y-13770772D01*
X14864625Y-13600772D02*
X14694625Y-13770772D01*
X15710625Y-9790773D02*
X15880625Y-9960773D01*
X15880625Y-9790773D02*
X15710625Y-9960773D01*
X15710625Y-11695772D02*
X15880625Y-11865772D01*
X15880625Y-11695772D02*
X15710625Y-11865772D01*
X15710625Y-13600772D02*
X15880625Y-13770772D01*
X15880625Y-13600772D02*
X15710625Y-13770772D01*
D13*
X11677625Y-11780772D02*
G75*
G02*
X11277625Y-11780772I-200000J0D01*
G01*
X11277625Y-11780772D02*
G75*
G02*
X11677625Y-11780772I200000J0D01*
G01*
X11677625Y-13685772D02*
G75*
G02*
X11277625Y-13685772I-200000J0D01*
G01*
X11277625Y-13685772D02*
G75*
G02*
X11677625Y-13685772I200000J0D01*
G01*
X13582625Y-9875773D02*
G75*
G02*
X13182625Y-9875773I-200000J0D01*
G01*
X13182625Y-9875773D02*
G75*
G02*
X13582625Y-9875773I200000J0D01*
G01*
X13582625Y-11780772D02*
G75*
G02*
X13182625Y-11780772I-200000J0D01*
G01*
X13182625Y-11780772D02*
G75*
G02*
X13582625Y-11780772I200000J0D01*
G01*
X13582625Y-13685772D02*
G75*
G02*
X13182625Y-13685772I-200000J0D01*
G01*
X13182625Y-13685772D02*
G75*
G02*
X13582625Y-13685772I200000J0D01*
G01*
X15487625Y-9875773D02*
G75*
G02*
X15087625Y-9875773I-200000J0D01*
G01*
X15087625Y-9875773D02*
G75*
G02*
X15487625Y-9875773I200000J0D01*
G01*
X15487625Y-11780772D02*
G75*
G02*
X15087625Y-11780772I-200000J0D01*
G01*
X15087625Y-11780772D02*
G75*
G02*
X15487625Y-11780772I200000J0D01*
G01*
X15487625Y-13685772D02*
G75*
G02*
X15087625Y-13685772I-200000J0D01*
G01*
X15087625Y-13685772D02*
G75*
G02*
X15487625Y-13685772I200000J0D01*
G01*
D11*
X10278277Y-15313984D02*
X10278277Y-15113984D01*
X10278277Y-15113984D02*
X10325896Y-15113984D01*
X10325896Y-15113984D02*
X10354467Y-15123508D01*
X10354467Y-15123508D02*
X10373515Y-15142555D01*
X10373515Y-15142555D02*
X10383039Y-15161603D01*
X10383039Y-15161603D02*
X10392563Y-15199698D01*
X10392563Y-15199698D02*
X10392563Y-15228269D01*
X10392563Y-15228269D02*
X10383039Y-15266365D01*
X10383039Y-15266365D02*
X10373515Y-15285412D01*
X10373515Y-15285412D02*
X10354467Y-15304460D01*
X10354467Y-15304460D02*
X10325896Y-15313984D01*
X10325896Y-15313984D02*
X10278277Y-15313984D01*
X10478277Y-15313984D02*
X10478277Y-15180650D01*
X10478277Y-15218746D02*
X10487801Y-15199698D01*
X10487801Y-15199698D02*
X10497324Y-15190174D01*
X10497324Y-15190174D02*
X10516372Y-15180650D01*
X10516372Y-15180650D02*
X10535420Y-15180650D01*
X10602086Y-15313984D02*
X10602086Y-15180650D01*
X10602086Y-15113984D02*
X10592563Y-15123508D01*
X10592563Y-15123508D02*
X10602086Y-15133031D01*
X10602086Y-15133031D02*
X10611610Y-15123508D01*
X10611610Y-15123508D02*
X10602086Y-15113984D01*
X10602086Y-15113984D02*
X10602086Y-15133031D01*
X10725896Y-15313984D02*
X10706848Y-15304460D01*
X10706848Y-15304460D02*
X10697324Y-15285412D01*
X10697324Y-15285412D02*
X10697324Y-15113984D01*
X10830658Y-15313984D02*
X10811610Y-15304460D01*
X10811610Y-15304460D02*
X10802086Y-15285412D01*
X10802086Y-15285412D02*
X10802086Y-15113984D01*
X11059229Y-15313984D02*
X11059229Y-15113984D01*
X11059229Y-15113984D02*
X11125896Y-15256841D01*
X11125896Y-15256841D02*
X11192562Y-15113984D01*
X11192562Y-15113984D02*
X11192562Y-15313984D01*
X11373515Y-15313984D02*
X11373515Y-15209222D01*
X11373515Y-15209222D02*
X11363991Y-15190174D01*
X11363991Y-15190174D02*
X11344943Y-15180650D01*
X11344943Y-15180650D02*
X11306848Y-15180650D01*
X11306848Y-15180650D02*
X11287801Y-15190174D01*
X11373515Y-15304460D02*
X11354467Y-15313984D01*
X11354467Y-15313984D02*
X11306848Y-15313984D01*
X11306848Y-15313984D02*
X11287801Y-15304460D01*
X11287801Y-15304460D02*
X11278277Y-15285412D01*
X11278277Y-15285412D02*
X11278277Y-15266365D01*
X11278277Y-15266365D02*
X11287801Y-15247317D01*
X11287801Y-15247317D02*
X11306848Y-15237793D01*
X11306848Y-15237793D02*
X11354467Y-15237793D01*
X11354467Y-15237793D02*
X11373515Y-15228269D01*
X11468753Y-15180650D02*
X11468753Y-15380650D01*
X11468753Y-15190174D02*
X11487801Y-15180650D01*
X11487801Y-15180650D02*
X11525896Y-15180650D01*
X11525896Y-15180650D02*
X11544943Y-15190174D01*
X11544943Y-15190174D02*
X11554467Y-15199698D01*
X11554467Y-15199698D02*
X11563991Y-15218746D01*
X11563991Y-15218746D02*
X11563991Y-15275888D01*
X11563991Y-15275888D02*
X11554467Y-15294936D01*
X11554467Y-15294936D02*
X11544943Y-15304460D01*
X11544943Y-15304460D02*
X11525896Y-15313984D01*
X11525896Y-15313984D02*
X11487801Y-15313984D01*
X11487801Y-15313984D02*
X11468753Y-15304460D01*
X11649705Y-15294936D02*
X11659229Y-15304460D01*
X11659229Y-15304460D02*
X11649705Y-15313984D01*
X11649705Y-15313984D02*
X11640182Y-15304460D01*
X11640182Y-15304460D02*
X11649705Y-15294936D01*
X11649705Y-15294936D02*
X11649705Y-15313984D01*
X11649705Y-15190174D02*
X11659229Y-15199698D01*
X11659229Y-15199698D02*
X11649705Y-15209222D01*
X11649705Y-15209222D02*
X11640182Y-15199698D01*
X11640182Y-15199698D02*
X11649705Y-15190174D01*
X11649705Y-15190174D02*
X11649705Y-15209222D01*
D12*
X9847500Y-15557500D02*
X10017500Y-15727500D01*
X10017500Y-15557500D02*
X9847500Y-15727500D01*
D11*
X10383039Y-15733984D02*
X10268753Y-15733984D01*
X10325896Y-15733984D02*
X10325896Y-15533984D01*
X10325896Y-15533984D02*
X10306848Y-15562555D01*
X10306848Y-15562555D02*
X10287801Y-15581603D01*
X10287801Y-15581603D02*
X10268753Y-15591127D01*
X10468753Y-15714936D02*
X10478277Y-15724460D01*
X10478277Y-15724460D02*
X10468753Y-15733984D01*
X10468753Y-15733984D02*
X10459229Y-15724460D01*
X10459229Y-15724460D02*
X10468753Y-15714936D01*
X10468753Y-15714936D02*
X10468753Y-15733984D01*
X10544944Y-15533984D02*
X10678277Y-15533984D01*
X10678277Y-15533984D02*
X10592563Y-15733984D01*
X10792563Y-15533984D02*
X10811610Y-15533984D01*
X10811610Y-15533984D02*
X10830658Y-15543508D01*
X10830658Y-15543508D02*
X10840182Y-15553031D01*
X10840182Y-15553031D02*
X10849705Y-15572079D01*
X10849705Y-15572079D02*
X10859229Y-15610174D01*
X10859229Y-15610174D02*
X10859229Y-15657793D01*
X10859229Y-15657793D02*
X10849705Y-15695888D01*
X10849705Y-15695888D02*
X10840182Y-15714936D01*
X10840182Y-15714936D02*
X10830658Y-15724460D01*
X10830658Y-15724460D02*
X10811610Y-15733984D01*
X10811610Y-15733984D02*
X10792563Y-15733984D01*
X10792563Y-15733984D02*
X10773515Y-15724460D01*
X10773515Y-15724460D02*
X10763991Y-15714936D01*
X10763991Y-15714936D02*
X10754467Y-15695888D01*
X10754467Y-15695888D02*
X10744944Y-15657793D01*
X10744944Y-15657793D02*
X10744944Y-15610174D01*
X10744944Y-15610174D02*
X10754467Y-15572079D01*
X10754467Y-15572079D02*
X10763991Y-15553031D01*
X10763991Y-15553031D02*
X10773515Y-15543508D01*
X10773515Y-15543508D02*
X10792563Y-15533984D01*
X10983039Y-15533984D02*
X11002086Y-15533984D01*
X11002086Y-15533984D02*
X11021134Y-15543508D01*
X11021134Y-15543508D02*
X11030658Y-15553031D01*
X11030658Y-15553031D02*
X11040182Y-15572079D01*
X11040182Y-15572079D02*
X11049705Y-15610174D01*
X11049705Y-15610174D02*
X11049705Y-15657793D01*
X11049705Y-15657793D02*
X11040182Y-15695888D01*
X11040182Y-15695888D02*
X11030658Y-15714936D01*
X11030658Y-15714936D02*
X11021134Y-15724460D01*
X11021134Y-15724460D02*
X11002086Y-15733984D01*
X11002086Y-15733984D02*
X10983039Y-15733984D01*
X10983039Y-15733984D02*
X10963991Y-15724460D01*
X10963991Y-15724460D02*
X10954467Y-15714936D01*
X10954467Y-15714936D02*
X10944944Y-15695888D01*
X10944944Y-15695888D02*
X10935420Y-15657793D01*
X10935420Y-15657793D02*
X10935420Y-15610174D01*
X10935420Y-15610174D02*
X10944944Y-15572079D01*
X10944944Y-15572079D02*
X10954467Y-15553031D01*
X10954467Y-15553031D02*
X10963991Y-15543508D01*
X10963991Y-15543508D02*
X10983039Y-15533984D01*
X11135420Y-15733984D02*
X11135420Y-15600650D01*
X11135420Y-15619698D02*
X11144944Y-15610174D01*
X11144944Y-15610174D02*
X11163991Y-15600650D01*
X11163991Y-15600650D02*
X11192563Y-15600650D01*
X11192563Y-15600650D02*
X11211610Y-15610174D01*
X11211610Y-15610174D02*
X11221134Y-15629222D01*
X11221134Y-15629222D02*
X11221134Y-15733984D01*
X11221134Y-15629222D02*
X11230658Y-15610174D01*
X11230658Y-15610174D02*
X11249705Y-15600650D01*
X11249705Y-15600650D02*
X11278277Y-15600650D01*
X11278277Y-15600650D02*
X11297324Y-15610174D01*
X11297324Y-15610174D02*
X11306848Y-15629222D01*
X11306848Y-15629222D02*
X11306848Y-15733984D01*
X11402086Y-15733984D02*
X11402086Y-15600650D01*
X11402086Y-15619698D02*
X11411610Y-15610174D01*
X11411610Y-15610174D02*
X11430658Y-15600650D01*
X11430658Y-15600650D02*
X11459229Y-15600650D01*
X11459229Y-15600650D02*
X11478277Y-15610174D01*
X11478277Y-15610174D02*
X11487801Y-15629222D01*
X11487801Y-15629222D02*
X11487801Y-15733984D01*
X11487801Y-15629222D02*
X11497324Y-15610174D01*
X11497324Y-15610174D02*
X11516372Y-15600650D01*
X11516372Y-15600650D02*
X11544943Y-15600650D01*
X11544943Y-15600650D02*
X11563991Y-15610174D01*
X11563991Y-15610174D02*
X11573515Y-15629222D01*
X11573515Y-15629222D02*
X11573515Y-15733984D01*
X11963991Y-15524460D02*
X11792563Y-15781603D01*
X12221134Y-15533984D02*
X12240182Y-15533984D01*
X12240182Y-15533984D02*
X12259229Y-15543508D01*
X12259229Y-15543508D02*
X12268753Y-15553031D01*
X12268753Y-15553031D02*
X12278277Y-15572079D01*
X12278277Y-15572079D02*
X12287801Y-15610174D01*
X12287801Y-15610174D02*
X12287801Y-15657793D01*
X12287801Y-15657793D02*
X12278277Y-15695888D01*
X12278277Y-15695888D02*
X12268753Y-15714936D01*
X12268753Y-15714936D02*
X12259229Y-15724460D01*
X12259229Y-15724460D02*
X12240182Y-15733984D01*
X12240182Y-15733984D02*
X12221134Y-15733984D01*
X12221134Y-15733984D02*
X12202086Y-15724460D01*
X12202086Y-15724460D02*
X12192563Y-15714936D01*
X12192563Y-15714936D02*
X12183039Y-15695888D01*
X12183039Y-15695888D02*
X12173515Y-15657793D01*
X12173515Y-15657793D02*
X12173515Y-15610174D01*
X12173515Y-15610174D02*
X12183039Y-15572079D01*
X12183039Y-15572079D02*
X12192563Y-15553031D01*
X12192563Y-15553031D02*
X12202086Y-15543508D01*
X12202086Y-15543508D02*
X12221134Y-15533984D01*
X12373515Y-15714936D02*
X12383039Y-15724460D01*
X12383039Y-15724460D02*
X12373515Y-15733984D01*
X12373515Y-15733984D02*
X12363991Y-15724460D01*
X12363991Y-15724460D02*
X12373515Y-15714936D01*
X12373515Y-15714936D02*
X12373515Y-15733984D01*
X12506848Y-15533984D02*
X12525896Y-15533984D01*
X12525896Y-15533984D02*
X12544944Y-15543508D01*
X12544944Y-15543508D02*
X12554467Y-15553031D01*
X12554467Y-15553031D02*
X12563991Y-15572079D01*
X12563991Y-15572079D02*
X12573515Y-15610174D01*
X12573515Y-15610174D02*
X12573515Y-15657793D01*
X12573515Y-15657793D02*
X12563991Y-15695888D01*
X12563991Y-15695888D02*
X12554467Y-15714936D01*
X12554467Y-15714936D02*
X12544944Y-15724460D01*
X12544944Y-15724460D02*
X12525896Y-15733984D01*
X12525896Y-15733984D02*
X12506848Y-15733984D01*
X12506848Y-15733984D02*
X12487801Y-15724460D01*
X12487801Y-15724460D02*
X12478277Y-15714936D01*
X12478277Y-15714936D02*
X12468753Y-15695888D01*
X12468753Y-15695888D02*
X12459229Y-15657793D01*
X12459229Y-15657793D02*
X12459229Y-15610174D01*
X12459229Y-15610174D02*
X12468753Y-15572079D01*
X12468753Y-15572079D02*
X12478277Y-15553031D01*
X12478277Y-15553031D02*
X12487801Y-15543508D01*
X12487801Y-15543508D02*
X12506848Y-15533984D01*
X12744944Y-15533984D02*
X12706848Y-15533984D01*
X12706848Y-15533984D02*
X12687801Y-15543508D01*
X12687801Y-15543508D02*
X12678277Y-15553031D01*
X12678277Y-15553031D02*
X12659229Y-15581603D01*
X12659229Y-15581603D02*
X12649706Y-15619698D01*
X12649706Y-15619698D02*
X12649706Y-15695888D01*
X12649706Y-15695888D02*
X12659229Y-15714936D01*
X12659229Y-15714936D02*
X12668753Y-15724460D01*
X12668753Y-15724460D02*
X12687801Y-15733984D01*
X12687801Y-15733984D02*
X12725896Y-15733984D01*
X12725896Y-15733984D02*
X12744944Y-15724460D01*
X12744944Y-15724460D02*
X12754467Y-15714936D01*
X12754467Y-15714936D02*
X12763991Y-15695888D01*
X12763991Y-15695888D02*
X12763991Y-15648269D01*
X12763991Y-15648269D02*
X12754467Y-15629222D01*
X12754467Y-15629222D02*
X12744944Y-15619698D01*
X12744944Y-15619698D02*
X12725896Y-15610174D01*
X12725896Y-15610174D02*
X12687801Y-15610174D01*
X12687801Y-15610174D02*
X12668753Y-15619698D01*
X12668753Y-15619698D02*
X12659229Y-15629222D01*
X12659229Y-15629222D02*
X12649706Y-15648269D01*
X12935420Y-15533984D02*
X12897325Y-15533984D01*
X12897325Y-15533984D02*
X12878277Y-15543508D01*
X12878277Y-15543508D02*
X12868753Y-15553031D01*
X12868753Y-15553031D02*
X12849706Y-15581603D01*
X12849706Y-15581603D02*
X12840182Y-15619698D01*
X12840182Y-15619698D02*
X12840182Y-15695888D01*
X12840182Y-15695888D02*
X12849706Y-15714936D01*
X12849706Y-15714936D02*
X12859229Y-15724460D01*
X12859229Y-15724460D02*
X12878277Y-15733984D01*
X12878277Y-15733984D02*
X12916372Y-15733984D01*
X12916372Y-15733984D02*
X12935420Y-15724460D01*
X12935420Y-15724460D02*
X12944944Y-15714936D01*
X12944944Y-15714936D02*
X12954467Y-15695888D01*
X12954467Y-15695888D02*
X12954467Y-15648269D01*
X12954467Y-15648269D02*
X12944944Y-15629222D01*
X12944944Y-15629222D02*
X12935420Y-15619698D01*
X12935420Y-15619698D02*
X12916372Y-15610174D01*
X12916372Y-15610174D02*
X12878277Y-15610174D01*
X12878277Y-15610174D02*
X12859229Y-15619698D01*
X12859229Y-15619698D02*
X12849706Y-15629222D01*
X12849706Y-15629222D02*
X12840182Y-15648269D01*
X13049706Y-15733984D02*
X13087801Y-15733984D01*
X13087801Y-15733984D02*
X13106848Y-15724460D01*
X13106848Y-15724460D02*
X13116372Y-15714936D01*
X13116372Y-15714936D02*
X13135420Y-15686365D01*
X13135420Y-15686365D02*
X13144944Y-15648269D01*
X13144944Y-15648269D02*
X13144944Y-15572079D01*
X13144944Y-15572079D02*
X13135420Y-15553031D01*
X13135420Y-15553031D02*
X13125896Y-15543508D01*
X13125896Y-15543508D02*
X13106848Y-15533984D01*
X13106848Y-15533984D02*
X13068753Y-15533984D01*
X13068753Y-15533984D02*
X13049706Y-15543508D01*
X13049706Y-15543508D02*
X13040182Y-15553031D01*
X13040182Y-15553031D02*
X13030658Y-15572079D01*
X13030658Y-15572079D02*
X13030658Y-15619698D01*
X13030658Y-15619698D02*
X13040182Y-15638746D01*
X13040182Y-15638746D02*
X13049706Y-15648269D01*
X13049706Y-15648269D02*
X13068753Y-15657793D01*
X13068753Y-15657793D02*
X13106848Y-15657793D01*
X13106848Y-15657793D02*
X13125896Y-15648269D01*
X13125896Y-15648269D02*
X13135420Y-15638746D01*
X13135420Y-15638746D02*
X13144944Y-15619698D01*
X13221134Y-15533984D02*
X13221134Y-15572079D01*
X13297325Y-15533984D02*
X13297325Y-15572079D01*
X13592563Y-15810174D02*
X13583039Y-15800650D01*
X13583039Y-15800650D02*
X13563991Y-15772079D01*
X13563991Y-15772079D02*
X13554468Y-15753031D01*
X13554468Y-15753031D02*
X13544944Y-15724460D01*
X13544944Y-15724460D02*
X13535420Y-15676841D01*
X13535420Y-15676841D02*
X13535420Y-15638746D01*
X13535420Y-15638746D02*
X13544944Y-15591127D01*
X13544944Y-15591127D02*
X13554468Y-15562555D01*
X13554468Y-15562555D02*
X13563991Y-15543508D01*
X13563991Y-15543508D02*
X13583039Y-15514936D01*
X13583039Y-15514936D02*
X13592563Y-15505412D01*
X13773515Y-15733984D02*
X13659229Y-15733984D01*
X13716372Y-15733984D02*
X13716372Y-15533984D01*
X13716372Y-15533984D02*
X13697325Y-15562555D01*
X13697325Y-15562555D02*
X13678277Y-15581603D01*
X13678277Y-15581603D02*
X13659229Y-15591127D01*
X13944944Y-15533984D02*
X13906848Y-15533984D01*
X13906848Y-15533984D02*
X13887801Y-15543508D01*
X13887801Y-15543508D02*
X13878277Y-15553031D01*
X13878277Y-15553031D02*
X13859229Y-15581603D01*
X13859229Y-15581603D02*
X13849706Y-15619698D01*
X13849706Y-15619698D02*
X13849706Y-15695888D01*
X13849706Y-15695888D02*
X13859229Y-15714936D01*
X13859229Y-15714936D02*
X13868753Y-15724460D01*
X13868753Y-15724460D02*
X13887801Y-15733984D01*
X13887801Y-15733984D02*
X13925896Y-15733984D01*
X13925896Y-15733984D02*
X13944944Y-15724460D01*
X13944944Y-15724460D02*
X13954468Y-15714936D01*
X13954468Y-15714936D02*
X13963991Y-15695888D01*
X13963991Y-15695888D02*
X13963991Y-15648269D01*
X13963991Y-15648269D02*
X13954468Y-15629222D01*
X13954468Y-15629222D02*
X13944944Y-15619698D01*
X13944944Y-15619698D02*
X13925896Y-15610174D01*
X13925896Y-15610174D02*
X13887801Y-15610174D01*
X13887801Y-15610174D02*
X13868753Y-15619698D01*
X13868753Y-15619698D02*
X13859229Y-15629222D01*
X13859229Y-15629222D02*
X13849706Y-15648269D01*
X14202087Y-15733984D02*
X14202087Y-15533984D01*
X14287801Y-15733984D02*
X14287801Y-15629222D01*
X14287801Y-15629222D02*
X14278277Y-15610174D01*
X14278277Y-15610174D02*
X14259230Y-15600650D01*
X14259230Y-15600650D02*
X14230658Y-15600650D01*
X14230658Y-15600650D02*
X14211610Y-15610174D01*
X14211610Y-15610174D02*
X14202087Y-15619698D01*
X14411610Y-15733984D02*
X14392563Y-15724460D01*
X14392563Y-15724460D02*
X14383039Y-15714936D01*
X14383039Y-15714936D02*
X14373515Y-15695888D01*
X14373515Y-15695888D02*
X14373515Y-15638746D01*
X14373515Y-15638746D02*
X14383039Y-15619698D01*
X14383039Y-15619698D02*
X14392563Y-15610174D01*
X14392563Y-15610174D02*
X14411610Y-15600650D01*
X14411610Y-15600650D02*
X14440182Y-15600650D01*
X14440182Y-15600650D02*
X14459230Y-15610174D01*
X14459230Y-15610174D02*
X14468753Y-15619698D01*
X14468753Y-15619698D02*
X14478277Y-15638746D01*
X14478277Y-15638746D02*
X14478277Y-15695888D01*
X14478277Y-15695888D02*
X14468753Y-15714936D01*
X14468753Y-15714936D02*
X14459230Y-15724460D01*
X14459230Y-15724460D02*
X14440182Y-15733984D01*
X14440182Y-15733984D02*
X14411610Y-15733984D01*
X14592563Y-15733984D02*
X14573515Y-15724460D01*
X14573515Y-15724460D02*
X14563991Y-15705412D01*
X14563991Y-15705412D02*
X14563991Y-15533984D01*
X14744944Y-15724460D02*
X14725896Y-15733984D01*
X14725896Y-15733984D02*
X14687801Y-15733984D01*
X14687801Y-15733984D02*
X14668753Y-15724460D01*
X14668753Y-15724460D02*
X14659230Y-15705412D01*
X14659230Y-15705412D02*
X14659230Y-15629222D01*
X14659230Y-15629222D02*
X14668753Y-15610174D01*
X14668753Y-15610174D02*
X14687801Y-15600650D01*
X14687801Y-15600650D02*
X14725896Y-15600650D01*
X14725896Y-15600650D02*
X14744944Y-15610174D01*
X14744944Y-15610174D02*
X14754468Y-15629222D01*
X14754468Y-15629222D02*
X14754468Y-15648269D01*
X14754468Y-15648269D02*
X14659230Y-15667317D01*
X14830658Y-15724460D02*
X14849706Y-15733984D01*
X14849706Y-15733984D02*
X14887801Y-15733984D01*
X14887801Y-15733984D02*
X14906849Y-15724460D01*
X14906849Y-15724460D02*
X14916372Y-15705412D01*
X14916372Y-15705412D02*
X14916372Y-15695888D01*
X14916372Y-15695888D02*
X14906849Y-15676841D01*
X14906849Y-15676841D02*
X14887801Y-15667317D01*
X14887801Y-15667317D02*
X14859230Y-15667317D01*
X14859230Y-15667317D02*
X14840182Y-15657793D01*
X14840182Y-15657793D02*
X14830658Y-15638746D01*
X14830658Y-15638746D02*
X14830658Y-15629222D01*
X14830658Y-15629222D02*
X14840182Y-15610174D01*
X14840182Y-15610174D02*
X14859230Y-15600650D01*
X14859230Y-15600650D02*
X14887801Y-15600650D01*
X14887801Y-15600650D02*
X14906849Y-15610174D01*
X14983039Y-15810174D02*
X14992563Y-15800650D01*
X14992563Y-15800650D02*
X15011611Y-15772079D01*
X15011611Y-15772079D02*
X15021134Y-15753031D01*
X15021134Y-15753031D02*
X15030658Y-15724460D01*
X15030658Y-15724460D02*
X15040182Y-15676841D01*
X15040182Y-15676841D02*
X15040182Y-15638746D01*
X15040182Y-15638746D02*
X15030658Y-15591127D01*
X15030658Y-15591127D02*
X15021134Y-15562555D01*
X15021134Y-15562555D02*
X15011611Y-15543508D01*
X15011611Y-15543508D02*
X14992563Y-15514936D01*
X14992563Y-15514936D02*
X14983039Y-15505412D01*
X15344944Y-15810174D02*
X15335420Y-15800650D01*
X15335420Y-15800650D02*
X15316372Y-15772079D01*
X15316372Y-15772079D02*
X15306849Y-15753031D01*
X15306849Y-15753031D02*
X15297325Y-15724460D01*
X15297325Y-15724460D02*
X15287801Y-15676841D01*
X15287801Y-15676841D02*
X15287801Y-15638746D01*
X15287801Y-15638746D02*
X15297325Y-15591127D01*
X15297325Y-15591127D02*
X15306849Y-15562555D01*
X15306849Y-15562555D02*
X15316372Y-15543508D01*
X15316372Y-15543508D02*
X15335420Y-15514936D01*
X15335420Y-15514936D02*
X15344944Y-15505412D01*
X15421134Y-15600650D02*
X15421134Y-15733984D01*
X15421134Y-15619698D02*
X15430658Y-15610174D01*
X15430658Y-15610174D02*
X15449706Y-15600650D01*
X15449706Y-15600650D02*
X15478277Y-15600650D01*
X15478277Y-15600650D02*
X15497325Y-15610174D01*
X15497325Y-15610174D02*
X15506849Y-15629222D01*
X15506849Y-15629222D02*
X15506849Y-15733984D01*
X15630658Y-15733984D02*
X15611611Y-15724460D01*
X15611611Y-15724460D02*
X15602087Y-15714936D01*
X15602087Y-15714936D02*
X15592563Y-15695888D01*
X15592563Y-15695888D02*
X15592563Y-15638746D01*
X15592563Y-15638746D02*
X15602087Y-15619698D01*
X15602087Y-15619698D02*
X15611611Y-15610174D01*
X15611611Y-15610174D02*
X15630658Y-15600650D01*
X15630658Y-15600650D02*
X15659230Y-15600650D01*
X15659230Y-15600650D02*
X15678277Y-15610174D01*
X15678277Y-15610174D02*
X15687801Y-15619698D01*
X15687801Y-15619698D02*
X15697325Y-15638746D01*
X15697325Y-15638746D02*
X15697325Y-15695888D01*
X15697325Y-15695888D02*
X15687801Y-15714936D01*
X15687801Y-15714936D02*
X15678277Y-15724460D01*
X15678277Y-15724460D02*
X15659230Y-15733984D01*
X15659230Y-15733984D02*
X15630658Y-15733984D01*
X15754468Y-15600650D02*
X15830658Y-15600650D01*
X15783039Y-15533984D02*
X15783039Y-15705412D01*
X15783039Y-15705412D02*
X15792563Y-15724460D01*
X15792563Y-15724460D02*
X15811611Y-15733984D01*
X15811611Y-15733984D02*
X15830658Y-15733984D01*
X16049706Y-15600650D02*
X16049706Y-15800650D01*
X16049706Y-15610174D02*
X16068753Y-15600650D01*
X16068753Y-15600650D02*
X16106849Y-15600650D01*
X16106849Y-15600650D02*
X16125896Y-15610174D01*
X16125896Y-15610174D02*
X16135420Y-15619698D01*
X16135420Y-15619698D02*
X16144944Y-15638746D01*
X16144944Y-15638746D02*
X16144944Y-15695888D01*
X16144944Y-15695888D02*
X16135420Y-15714936D01*
X16135420Y-15714936D02*
X16125896Y-15724460D01*
X16125896Y-15724460D02*
X16106849Y-15733984D01*
X16106849Y-15733984D02*
X16068753Y-15733984D01*
X16068753Y-15733984D02*
X16049706Y-15724460D01*
X16259230Y-15733984D02*
X16240182Y-15724460D01*
X16240182Y-15724460D02*
X16230658Y-15705412D01*
X16230658Y-15705412D02*
X16230658Y-15533984D01*
X16421134Y-15733984D02*
X16421134Y-15629222D01*
X16421134Y-15629222D02*
X16411611Y-15610174D01*
X16411611Y-15610174D02*
X16392563Y-15600650D01*
X16392563Y-15600650D02*
X16354468Y-15600650D01*
X16354468Y-15600650D02*
X16335420Y-15610174D01*
X16421134Y-15724460D02*
X16402087Y-15733984D01*
X16402087Y-15733984D02*
X16354468Y-15733984D01*
X16354468Y-15733984D02*
X16335420Y-15724460D01*
X16335420Y-15724460D02*
X16325896Y-15705412D01*
X16325896Y-15705412D02*
X16325896Y-15686365D01*
X16325896Y-15686365D02*
X16335420Y-15667317D01*
X16335420Y-15667317D02*
X16354468Y-15657793D01*
X16354468Y-15657793D02*
X16402087Y-15657793D01*
X16402087Y-15657793D02*
X16421134Y-15648269D01*
X16487801Y-15600650D02*
X16563992Y-15600650D01*
X16516373Y-15533984D02*
X16516373Y-15705412D01*
X16516373Y-15705412D02*
X16525896Y-15724460D01*
X16525896Y-15724460D02*
X16544944Y-15733984D01*
X16544944Y-15733984D02*
X16563992Y-15733984D01*
X16706849Y-15724460D02*
X16687801Y-15733984D01*
X16687801Y-15733984D02*
X16649706Y-15733984D01*
X16649706Y-15733984D02*
X16630658Y-15724460D01*
X16630658Y-15724460D02*
X16621134Y-15705412D01*
X16621134Y-15705412D02*
X16621134Y-15629222D01*
X16621134Y-15629222D02*
X16630658Y-15610174D01*
X16630658Y-15610174D02*
X16649706Y-15600650D01*
X16649706Y-15600650D02*
X16687801Y-15600650D01*
X16687801Y-15600650D02*
X16706849Y-15610174D01*
X16706849Y-15610174D02*
X16716373Y-15629222D01*
X16716373Y-15629222D02*
X16716373Y-15648269D01*
X16716373Y-15648269D02*
X16621134Y-15667317D01*
X16887801Y-15733984D02*
X16887801Y-15533984D01*
X16887801Y-15724460D02*
X16868754Y-15733984D01*
X16868754Y-15733984D02*
X16830658Y-15733984D01*
X16830658Y-15733984D02*
X16811611Y-15724460D01*
X16811611Y-15724460D02*
X16802087Y-15714936D01*
X16802087Y-15714936D02*
X16792563Y-15695888D01*
X16792563Y-15695888D02*
X16792563Y-15638746D01*
X16792563Y-15638746D02*
X16802087Y-15619698D01*
X16802087Y-15619698D02*
X16811611Y-15610174D01*
X16811611Y-15610174D02*
X16830658Y-15600650D01*
X16830658Y-15600650D02*
X16868754Y-15600650D01*
X16868754Y-15600650D02*
X16887801Y-15610174D01*
X16963992Y-15810174D02*
X16973516Y-15800650D01*
X16973516Y-15800650D02*
X16992563Y-15772079D01*
X16992563Y-15772079D02*
X17002087Y-15753031D01*
X17002087Y-15753031D02*
X17011611Y-15724460D01*
X17011611Y-15724460D02*
X17021135Y-15676841D01*
X17021135Y-15676841D02*
X17021135Y-15638746D01*
X17021135Y-15638746D02*
X17011611Y-15591127D01*
X17011611Y-15591127D02*
X17002087Y-15562555D01*
X17002087Y-15562555D02*
X16992563Y-15543508D01*
X16992563Y-15543508D02*
X16973516Y-15514936D01*
X16973516Y-15514936D02*
X16963992Y-15505412D01*
X10017500Y-15932500D02*
G75*
G02*
X9817500Y-15932500I-100000J0D01*
G01*
X9817500Y-15932500D02*
G75*
G02*
X10017500Y-15932500I100000J0D01*
G01*
X10363991Y-15890650D02*
X10363991Y-16023984D01*
X10316372Y-15814460D02*
X10268753Y-15957317D01*
X10268753Y-15957317D02*
X10392563Y-15957317D01*
X10468753Y-16004936D02*
X10478277Y-16014460D01*
X10478277Y-16014460D02*
X10468753Y-16023984D01*
X10468753Y-16023984D02*
X10459229Y-16014460D01*
X10459229Y-16014460D02*
X10468753Y-16004936D01*
X10468753Y-16004936D02*
X10468753Y-16023984D01*
X10602086Y-15823984D02*
X10621134Y-15823984D01*
X10621134Y-15823984D02*
X10640182Y-15833508D01*
X10640182Y-15833508D02*
X10649705Y-15843031D01*
X10649705Y-15843031D02*
X10659229Y-15862079D01*
X10659229Y-15862079D02*
X10668753Y-15900174D01*
X10668753Y-15900174D02*
X10668753Y-15947793D01*
X10668753Y-15947793D02*
X10659229Y-15985888D01*
X10659229Y-15985888D02*
X10649705Y-16004936D01*
X10649705Y-16004936D02*
X10640182Y-16014460D01*
X10640182Y-16014460D02*
X10621134Y-16023984D01*
X10621134Y-16023984D02*
X10602086Y-16023984D01*
X10602086Y-16023984D02*
X10583039Y-16014460D01*
X10583039Y-16014460D02*
X10573515Y-16004936D01*
X10573515Y-16004936D02*
X10563991Y-15985888D01*
X10563991Y-15985888D02*
X10554467Y-15947793D01*
X10554467Y-15947793D02*
X10554467Y-15900174D01*
X10554467Y-15900174D02*
X10563991Y-15862079D01*
X10563991Y-15862079D02*
X10573515Y-15843031D01*
X10573515Y-15843031D02*
X10583039Y-15833508D01*
X10583039Y-15833508D02*
X10602086Y-15823984D01*
X10792563Y-15823984D02*
X10811610Y-15823984D01*
X10811610Y-15823984D02*
X10830658Y-15833508D01*
X10830658Y-15833508D02*
X10840182Y-15843031D01*
X10840182Y-15843031D02*
X10849705Y-15862079D01*
X10849705Y-15862079D02*
X10859229Y-15900174D01*
X10859229Y-15900174D02*
X10859229Y-15947793D01*
X10859229Y-15947793D02*
X10849705Y-15985888D01*
X10849705Y-15985888D02*
X10840182Y-16004936D01*
X10840182Y-16004936D02*
X10830658Y-16014460D01*
X10830658Y-16014460D02*
X10811610Y-16023984D01*
X10811610Y-16023984D02*
X10792563Y-16023984D01*
X10792563Y-16023984D02*
X10773515Y-16014460D01*
X10773515Y-16014460D02*
X10763991Y-16004936D01*
X10763991Y-16004936D02*
X10754467Y-15985888D01*
X10754467Y-15985888D02*
X10744944Y-15947793D01*
X10744944Y-15947793D02*
X10744944Y-15900174D01*
X10744944Y-15900174D02*
X10754467Y-15862079D01*
X10754467Y-15862079D02*
X10763991Y-15843031D01*
X10763991Y-15843031D02*
X10773515Y-15833508D01*
X10773515Y-15833508D02*
X10792563Y-15823984D01*
X10983039Y-15823984D02*
X11002086Y-15823984D01*
X11002086Y-15823984D02*
X11021134Y-15833508D01*
X11021134Y-15833508D02*
X11030658Y-15843031D01*
X11030658Y-15843031D02*
X11040182Y-15862079D01*
X11040182Y-15862079D02*
X11049705Y-15900174D01*
X11049705Y-15900174D02*
X11049705Y-15947793D01*
X11049705Y-15947793D02*
X11040182Y-15985888D01*
X11040182Y-15985888D02*
X11030658Y-16004936D01*
X11030658Y-16004936D02*
X11021134Y-16014460D01*
X11021134Y-16014460D02*
X11002086Y-16023984D01*
X11002086Y-16023984D02*
X10983039Y-16023984D01*
X10983039Y-16023984D02*
X10963991Y-16014460D01*
X10963991Y-16014460D02*
X10954467Y-16004936D01*
X10954467Y-16004936D02*
X10944944Y-15985888D01*
X10944944Y-15985888D02*
X10935420Y-15947793D01*
X10935420Y-15947793D02*
X10935420Y-15900174D01*
X10935420Y-15900174D02*
X10944944Y-15862079D01*
X10944944Y-15862079D02*
X10954467Y-15843031D01*
X10954467Y-15843031D02*
X10963991Y-15833508D01*
X10963991Y-15833508D02*
X10983039Y-15823984D01*
X11135420Y-16023984D02*
X11135420Y-15890650D01*
X11135420Y-15909698D02*
X11144944Y-15900174D01*
X11144944Y-15900174D02*
X11163991Y-15890650D01*
X11163991Y-15890650D02*
X11192563Y-15890650D01*
X11192563Y-15890650D02*
X11211610Y-15900174D01*
X11211610Y-15900174D02*
X11221134Y-15919222D01*
X11221134Y-15919222D02*
X11221134Y-16023984D01*
X11221134Y-15919222D02*
X11230658Y-15900174D01*
X11230658Y-15900174D02*
X11249705Y-15890650D01*
X11249705Y-15890650D02*
X11278277Y-15890650D01*
X11278277Y-15890650D02*
X11297324Y-15900174D01*
X11297324Y-15900174D02*
X11306848Y-15919222D01*
X11306848Y-15919222D02*
X11306848Y-16023984D01*
X11402086Y-16023984D02*
X11402086Y-15890650D01*
X11402086Y-15909698D02*
X11411610Y-15900174D01*
X11411610Y-15900174D02*
X11430658Y-15890650D01*
X11430658Y-15890650D02*
X11459229Y-15890650D01*
X11459229Y-15890650D02*
X11478277Y-15900174D01*
X11478277Y-15900174D02*
X11487801Y-15919222D01*
X11487801Y-15919222D02*
X11487801Y-16023984D01*
X11487801Y-15919222D02*
X11497324Y-15900174D01*
X11497324Y-15900174D02*
X11516372Y-15890650D01*
X11516372Y-15890650D02*
X11544943Y-15890650D01*
X11544943Y-15890650D02*
X11563991Y-15900174D01*
X11563991Y-15900174D02*
X11573515Y-15919222D01*
X11573515Y-15919222D02*
X11573515Y-16023984D01*
X11963991Y-15814460D02*
X11792563Y-16071603D01*
X12221134Y-15823984D02*
X12240182Y-15823984D01*
X12240182Y-15823984D02*
X12259229Y-15833508D01*
X12259229Y-15833508D02*
X12268753Y-15843031D01*
X12268753Y-15843031D02*
X12278277Y-15862079D01*
X12278277Y-15862079D02*
X12287801Y-15900174D01*
X12287801Y-15900174D02*
X12287801Y-15947793D01*
X12287801Y-15947793D02*
X12278277Y-15985888D01*
X12278277Y-15985888D02*
X12268753Y-16004936D01*
X12268753Y-16004936D02*
X12259229Y-16014460D01*
X12259229Y-16014460D02*
X12240182Y-16023984D01*
X12240182Y-16023984D02*
X12221134Y-16023984D01*
X12221134Y-16023984D02*
X12202086Y-16014460D01*
X12202086Y-16014460D02*
X12192563Y-16004936D01*
X12192563Y-16004936D02*
X12183039Y-15985888D01*
X12183039Y-15985888D02*
X12173515Y-15947793D01*
X12173515Y-15947793D02*
X12173515Y-15900174D01*
X12173515Y-15900174D02*
X12183039Y-15862079D01*
X12183039Y-15862079D02*
X12192563Y-15843031D01*
X12192563Y-15843031D02*
X12202086Y-15833508D01*
X12202086Y-15833508D02*
X12221134Y-15823984D01*
X12373515Y-16004936D02*
X12383039Y-16014460D01*
X12383039Y-16014460D02*
X12373515Y-16023984D01*
X12373515Y-16023984D02*
X12363991Y-16014460D01*
X12363991Y-16014460D02*
X12373515Y-16004936D01*
X12373515Y-16004936D02*
X12373515Y-16023984D01*
X12573515Y-16023984D02*
X12459229Y-16023984D01*
X12516372Y-16023984D02*
X12516372Y-15823984D01*
X12516372Y-15823984D02*
X12497325Y-15852555D01*
X12497325Y-15852555D02*
X12478277Y-15871603D01*
X12478277Y-15871603D02*
X12459229Y-15881127D01*
X12754467Y-15823984D02*
X12659229Y-15823984D01*
X12659229Y-15823984D02*
X12649706Y-15919222D01*
X12649706Y-15919222D02*
X12659229Y-15909698D01*
X12659229Y-15909698D02*
X12678277Y-15900174D01*
X12678277Y-15900174D02*
X12725896Y-15900174D01*
X12725896Y-15900174D02*
X12744944Y-15909698D01*
X12744944Y-15909698D02*
X12754467Y-15919222D01*
X12754467Y-15919222D02*
X12763991Y-15938269D01*
X12763991Y-15938269D02*
X12763991Y-15985888D01*
X12763991Y-15985888D02*
X12754467Y-16004936D01*
X12754467Y-16004936D02*
X12744944Y-16014460D01*
X12744944Y-16014460D02*
X12725896Y-16023984D01*
X12725896Y-16023984D02*
X12678277Y-16023984D01*
X12678277Y-16023984D02*
X12659229Y-16014460D01*
X12659229Y-16014460D02*
X12649706Y-16004936D01*
X12830658Y-15823984D02*
X12963991Y-15823984D01*
X12963991Y-15823984D02*
X12878277Y-16023984D01*
X13135420Y-15823984D02*
X13040182Y-15823984D01*
X13040182Y-15823984D02*
X13030658Y-15919222D01*
X13030658Y-15919222D02*
X13040182Y-15909698D01*
X13040182Y-15909698D02*
X13059229Y-15900174D01*
X13059229Y-15900174D02*
X13106848Y-15900174D01*
X13106848Y-15900174D02*
X13125896Y-15909698D01*
X13125896Y-15909698D02*
X13135420Y-15919222D01*
X13135420Y-15919222D02*
X13144944Y-15938269D01*
X13144944Y-15938269D02*
X13144944Y-15985888D01*
X13144944Y-15985888D02*
X13135420Y-16004936D01*
X13135420Y-16004936D02*
X13125896Y-16014460D01*
X13125896Y-16014460D02*
X13106848Y-16023984D01*
X13106848Y-16023984D02*
X13059229Y-16023984D01*
X13059229Y-16023984D02*
X13040182Y-16014460D01*
X13040182Y-16014460D02*
X13030658Y-16004936D01*
X13221134Y-15823984D02*
X13221134Y-15862079D01*
X13297325Y-15823984D02*
X13297325Y-15862079D01*
X13592563Y-16100174D02*
X13583039Y-16090650D01*
X13583039Y-16090650D02*
X13563991Y-16062079D01*
X13563991Y-16062079D02*
X13554468Y-16043031D01*
X13554468Y-16043031D02*
X13544944Y-16014460D01*
X13544944Y-16014460D02*
X13535420Y-15966841D01*
X13535420Y-15966841D02*
X13535420Y-15928746D01*
X13535420Y-15928746D02*
X13544944Y-15881127D01*
X13544944Y-15881127D02*
X13554468Y-15852555D01*
X13554468Y-15852555D02*
X13563991Y-15833508D01*
X13563991Y-15833508D02*
X13583039Y-15804936D01*
X13583039Y-15804936D02*
X13592563Y-15795412D01*
X13697325Y-15909698D02*
X13678277Y-15900174D01*
X13678277Y-15900174D02*
X13668753Y-15890650D01*
X13668753Y-15890650D02*
X13659229Y-15871603D01*
X13659229Y-15871603D02*
X13659229Y-15862079D01*
X13659229Y-15862079D02*
X13668753Y-15843031D01*
X13668753Y-15843031D02*
X13678277Y-15833508D01*
X13678277Y-15833508D02*
X13697325Y-15823984D01*
X13697325Y-15823984D02*
X13735420Y-15823984D01*
X13735420Y-15823984D02*
X13754468Y-15833508D01*
X13754468Y-15833508D02*
X13763991Y-15843031D01*
X13763991Y-15843031D02*
X13773515Y-15862079D01*
X13773515Y-15862079D02*
X13773515Y-15871603D01*
X13773515Y-15871603D02*
X13763991Y-15890650D01*
X13763991Y-15890650D02*
X13754468Y-15900174D01*
X13754468Y-15900174D02*
X13735420Y-15909698D01*
X13735420Y-15909698D02*
X13697325Y-15909698D01*
X13697325Y-15909698D02*
X13678277Y-15919222D01*
X13678277Y-15919222D02*
X13668753Y-15928746D01*
X13668753Y-15928746D02*
X13659229Y-15947793D01*
X13659229Y-15947793D02*
X13659229Y-15985888D01*
X13659229Y-15985888D02*
X13668753Y-16004936D01*
X13668753Y-16004936D02*
X13678277Y-16014460D01*
X13678277Y-16014460D02*
X13697325Y-16023984D01*
X13697325Y-16023984D02*
X13735420Y-16023984D01*
X13735420Y-16023984D02*
X13754468Y-16014460D01*
X13754468Y-16014460D02*
X13763991Y-16004936D01*
X13763991Y-16004936D02*
X13773515Y-15985888D01*
X13773515Y-15985888D02*
X13773515Y-15947793D01*
X13773515Y-15947793D02*
X13763991Y-15928746D01*
X13763991Y-15928746D02*
X13754468Y-15919222D01*
X13754468Y-15919222D02*
X13735420Y-15909698D01*
X14011610Y-16023984D02*
X14011610Y-15823984D01*
X14097325Y-16023984D02*
X14097325Y-15919222D01*
X14097325Y-15919222D02*
X14087801Y-15900174D01*
X14087801Y-15900174D02*
X14068753Y-15890650D01*
X14068753Y-15890650D02*
X14040182Y-15890650D01*
X14040182Y-15890650D02*
X14021134Y-15900174D01*
X14021134Y-15900174D02*
X14011610Y-15909698D01*
X14221134Y-16023984D02*
X14202087Y-16014460D01*
X14202087Y-16014460D02*
X14192563Y-16004936D01*
X14192563Y-16004936D02*
X14183039Y-15985888D01*
X14183039Y-15985888D02*
X14183039Y-15928746D01*
X14183039Y-15928746D02*
X14192563Y-15909698D01*
X14192563Y-15909698D02*
X14202087Y-15900174D01*
X14202087Y-15900174D02*
X14221134Y-15890650D01*
X14221134Y-15890650D02*
X14249706Y-15890650D01*
X14249706Y-15890650D02*
X14268753Y-15900174D01*
X14268753Y-15900174D02*
X14278277Y-15909698D01*
X14278277Y-15909698D02*
X14287801Y-15928746D01*
X14287801Y-15928746D02*
X14287801Y-15985888D01*
X14287801Y-15985888D02*
X14278277Y-16004936D01*
X14278277Y-16004936D02*
X14268753Y-16014460D01*
X14268753Y-16014460D02*
X14249706Y-16023984D01*
X14249706Y-16023984D02*
X14221134Y-16023984D01*
X14402087Y-16023984D02*
X14383039Y-16014460D01*
X14383039Y-16014460D02*
X14373515Y-15995412D01*
X14373515Y-15995412D02*
X14373515Y-15823984D01*
X14554468Y-16014460D02*
X14535420Y-16023984D01*
X14535420Y-16023984D02*
X14497325Y-16023984D01*
X14497325Y-16023984D02*
X14478277Y-16014460D01*
X14478277Y-16014460D02*
X14468753Y-15995412D01*
X14468753Y-15995412D02*
X14468753Y-15919222D01*
X14468753Y-15919222D02*
X14478277Y-15900174D01*
X14478277Y-15900174D02*
X14497325Y-15890650D01*
X14497325Y-15890650D02*
X14535420Y-15890650D01*
X14535420Y-15890650D02*
X14554468Y-15900174D01*
X14554468Y-15900174D02*
X14563991Y-15919222D01*
X14563991Y-15919222D02*
X14563991Y-15938269D01*
X14563991Y-15938269D02*
X14468753Y-15957317D01*
X14640182Y-16014460D02*
X14659230Y-16023984D01*
X14659230Y-16023984D02*
X14697325Y-16023984D01*
X14697325Y-16023984D02*
X14716372Y-16014460D01*
X14716372Y-16014460D02*
X14725896Y-15995412D01*
X14725896Y-15995412D02*
X14725896Y-15985888D01*
X14725896Y-15985888D02*
X14716372Y-15966841D01*
X14716372Y-15966841D02*
X14697325Y-15957317D01*
X14697325Y-15957317D02*
X14668753Y-15957317D01*
X14668753Y-15957317D02*
X14649706Y-15947793D01*
X14649706Y-15947793D02*
X14640182Y-15928746D01*
X14640182Y-15928746D02*
X14640182Y-15919222D01*
X14640182Y-15919222D02*
X14649706Y-15900174D01*
X14649706Y-15900174D02*
X14668753Y-15890650D01*
X14668753Y-15890650D02*
X14697325Y-15890650D01*
X14697325Y-15890650D02*
X14716372Y-15900174D01*
X14792563Y-16100174D02*
X14802087Y-16090650D01*
X14802087Y-16090650D02*
X14821134Y-16062079D01*
X14821134Y-16062079D02*
X14830658Y-16043031D01*
X14830658Y-16043031D02*
X14840182Y-16014460D01*
X14840182Y-16014460D02*
X14849706Y-15966841D01*
X14849706Y-15966841D02*
X14849706Y-15928746D01*
X14849706Y-15928746D02*
X14840182Y-15881127D01*
X14840182Y-15881127D02*
X14830658Y-15852555D01*
X14830658Y-15852555D02*
X14821134Y-15833508D01*
X14821134Y-15833508D02*
X14802087Y-15804936D01*
X14802087Y-15804936D02*
X14792563Y-15795412D01*
X15154468Y-16100174D02*
X15144944Y-16090650D01*
X15144944Y-16090650D02*
X15125896Y-16062079D01*
X15125896Y-16062079D02*
X15116372Y-16043031D01*
X15116372Y-16043031D02*
X15106849Y-16014460D01*
X15106849Y-16014460D02*
X15097325Y-15966841D01*
X15097325Y-15966841D02*
X15097325Y-15928746D01*
X15097325Y-15928746D02*
X15106849Y-15881127D01*
X15106849Y-15881127D02*
X15116372Y-15852555D01*
X15116372Y-15852555D02*
X15125896Y-15833508D01*
X15125896Y-15833508D02*
X15144944Y-15804936D01*
X15144944Y-15804936D02*
X15154468Y-15795412D01*
X15230658Y-15890650D02*
X15230658Y-16023984D01*
X15230658Y-15909698D02*
X15240182Y-15900174D01*
X15240182Y-15900174D02*
X15259230Y-15890650D01*
X15259230Y-15890650D02*
X15287801Y-15890650D01*
X15287801Y-15890650D02*
X15306849Y-15900174D01*
X15306849Y-15900174D02*
X15316372Y-15919222D01*
X15316372Y-15919222D02*
X15316372Y-16023984D01*
X15440182Y-16023984D02*
X15421134Y-16014460D01*
X15421134Y-16014460D02*
X15411611Y-16004936D01*
X15411611Y-16004936D02*
X15402087Y-15985888D01*
X15402087Y-15985888D02*
X15402087Y-15928746D01*
X15402087Y-15928746D02*
X15411611Y-15909698D01*
X15411611Y-15909698D02*
X15421134Y-15900174D01*
X15421134Y-15900174D02*
X15440182Y-15890650D01*
X15440182Y-15890650D02*
X15468753Y-15890650D01*
X15468753Y-15890650D02*
X15487801Y-15900174D01*
X15487801Y-15900174D02*
X15497325Y-15909698D01*
X15497325Y-15909698D02*
X15506849Y-15928746D01*
X15506849Y-15928746D02*
X15506849Y-15985888D01*
X15506849Y-15985888D02*
X15497325Y-16004936D01*
X15497325Y-16004936D02*
X15487801Y-16014460D01*
X15487801Y-16014460D02*
X15468753Y-16023984D01*
X15468753Y-16023984D02*
X15440182Y-16023984D01*
X15563992Y-15890650D02*
X15640182Y-15890650D01*
X15592563Y-15823984D02*
X15592563Y-15995412D01*
X15592563Y-15995412D02*
X15602087Y-16014460D01*
X15602087Y-16014460D02*
X15621134Y-16023984D01*
X15621134Y-16023984D02*
X15640182Y-16023984D01*
X15859230Y-15890650D02*
X15859230Y-16090650D01*
X15859230Y-15900174D02*
X15878277Y-15890650D01*
X15878277Y-15890650D02*
X15916373Y-15890650D01*
X15916373Y-15890650D02*
X15935420Y-15900174D01*
X15935420Y-15900174D02*
X15944944Y-15909698D01*
X15944944Y-15909698D02*
X15954468Y-15928746D01*
X15954468Y-15928746D02*
X15954468Y-15985888D01*
X15954468Y-15985888D02*
X15944944Y-16004936D01*
X15944944Y-16004936D02*
X15935420Y-16014460D01*
X15935420Y-16014460D02*
X15916373Y-16023984D01*
X15916373Y-16023984D02*
X15878277Y-16023984D01*
X15878277Y-16023984D02*
X15859230Y-16014460D01*
X16068753Y-16023984D02*
X16049706Y-16014460D01*
X16049706Y-16014460D02*
X16040182Y-15995412D01*
X16040182Y-15995412D02*
X16040182Y-15823984D01*
X16230658Y-16023984D02*
X16230658Y-15919222D01*
X16230658Y-15919222D02*
X16221134Y-15900174D01*
X16221134Y-15900174D02*
X16202087Y-15890650D01*
X16202087Y-15890650D02*
X16163992Y-15890650D01*
X16163992Y-15890650D02*
X16144944Y-15900174D01*
X16230658Y-16014460D02*
X16211611Y-16023984D01*
X16211611Y-16023984D02*
X16163992Y-16023984D01*
X16163992Y-16023984D02*
X16144944Y-16014460D01*
X16144944Y-16014460D02*
X16135420Y-15995412D01*
X16135420Y-15995412D02*
X16135420Y-15976365D01*
X16135420Y-15976365D02*
X16144944Y-15957317D01*
X16144944Y-15957317D02*
X16163992Y-15947793D01*
X16163992Y-15947793D02*
X16211611Y-15947793D01*
X16211611Y-15947793D02*
X16230658Y-15938269D01*
X16297325Y-15890650D02*
X16373515Y-15890650D01*
X16325896Y-15823984D02*
X16325896Y-15995412D01*
X16325896Y-15995412D02*
X16335420Y-16014460D01*
X16335420Y-16014460D02*
X16354468Y-16023984D01*
X16354468Y-16023984D02*
X16373515Y-16023984D01*
X16516373Y-16014460D02*
X16497325Y-16023984D01*
X16497325Y-16023984D02*
X16459230Y-16023984D01*
X16459230Y-16023984D02*
X16440182Y-16014460D01*
X16440182Y-16014460D02*
X16430658Y-15995412D01*
X16430658Y-15995412D02*
X16430658Y-15919222D01*
X16430658Y-15919222D02*
X16440182Y-15900174D01*
X16440182Y-15900174D02*
X16459230Y-15890650D01*
X16459230Y-15890650D02*
X16497325Y-15890650D01*
X16497325Y-15890650D02*
X16516373Y-15900174D01*
X16516373Y-15900174D02*
X16525896Y-15919222D01*
X16525896Y-15919222D02*
X16525896Y-15938269D01*
X16525896Y-15938269D02*
X16430658Y-15957317D01*
X16697325Y-16023984D02*
X16697325Y-15823984D01*
X16697325Y-16014460D02*
X16678277Y-16023984D01*
X16678277Y-16023984D02*
X16640182Y-16023984D01*
X16640182Y-16023984D02*
X16621134Y-16014460D01*
X16621134Y-16014460D02*
X16611611Y-16004936D01*
X16611611Y-16004936D02*
X16602087Y-15985888D01*
X16602087Y-15985888D02*
X16602087Y-15928746D01*
X16602087Y-15928746D02*
X16611611Y-15909698D01*
X16611611Y-15909698D02*
X16621134Y-15900174D01*
X16621134Y-15900174D02*
X16640182Y-15890650D01*
X16640182Y-15890650D02*
X16678277Y-15890650D01*
X16678277Y-15890650D02*
X16697325Y-15900174D01*
X16773515Y-16100174D02*
X16783039Y-16090650D01*
X16783039Y-16090650D02*
X16802087Y-16062079D01*
X16802087Y-16062079D02*
X16811611Y-16043031D01*
X16811611Y-16043031D02*
X16821135Y-16014460D01*
X16821135Y-16014460D02*
X16830658Y-15966841D01*
X16830658Y-15966841D02*
X16830658Y-15928746D01*
X16830658Y-15928746D02*
X16821135Y-15881127D01*
X16821135Y-15881127D02*
X16811611Y-15852555D01*
X16811611Y-15852555D02*
X16802087Y-15833508D01*
X16802087Y-15833508D02*
X16783039Y-15804936D01*
X16783039Y-15804936D02*
X16773515Y-15795412D01*
M02*
